<?xml version="1.0" encoding="UTF-8"?>
<svg clip-rule="evenodd" fill-rule="evenodd" stroke-linejoin="round" stroke-miterlimit="2" version="1.1" viewBox="0 0 1024 1024" xml:space="preserve" xmlns="http://www.w3.org/2000/svg"><path d="m249.14 94.17c-9.1267 12.567 17.237 42.653 11.928 53.33 12.457-32.941-13.082-18.437-11.928-53.33zm493.13 17.084c9.1506 20.668-34.204 59.704-33.983 38.272 13.293-19.227 12.067-24.988-1.4756-5.8343-5.0711-35.466-1.3154 34.75-30.323 20.654-4.1337 11.966-31.811 7.9542-43.236 17.486-16.749 34.445-93.664 27.828-91.597 45.114 34.542-17.126 59.765 32.101 93.552 5.8506 29.418 19.398 61.902 30.581 95.287 24.155-31.983 3.7115 16.933-38.793-12.119-15.833-3.6322 28.487-74.601 4.8813-33.012-1.5203-38.835 9.3905-22.626-24.544 6.414-17.314 17.894-6.4879 91.029 8.6604 37.99-6.5997 12.833-13.706 55.62-25.869 12.868-14.766-16.684 23.835-76.834 18.582-29.266-6.6944-23.619 12.578-56.091 35.924-91.674 35.883-26.069 15.296-44.846-19.858-7.7068-22.851 16.284-2.6357 46.247-4.7687 50.494-20.784-15.089 21.149-52.052 10.808-15.672-2.839 28.139-22.134 52.079-2.5991 77.81 3.474-39.551-9.8876-6.9512-17.058 13.61-15.897 14.219-15.021-58.218 11.728-36.779-8.8516 13.895-11.283 88.063-11.256 38.563-15.581 20.676-14.412 12.166-10.525-3.8795-2.7709 7.6367-14.633 37.563-38.76 5.1217-15.771-4.334-4.7968 1.2591-11.608-0.98699-16.981zm-108.23 0.78125c-4.3853 14.705-69.81 45.752-41.669 39.465 14.379-9.7564 41.015-21.974 41.669-39.465zm-143.61 1.1133c-26.524 9.8966-65.689 46-69.045 61.176 21.416-25.069 46.465-44.171 69.045-61.176zm-29.652 13.443c8.4314-2.2051-3.269-14.775 0 9e-5zm125.36-5.8242c-9.327 42.914-43.686 55.632-65.788 91.876-37.578 9.934-74.497 22.682-108.2 44.661-19.495 13.579-50.96 45.396-55-1.9887 6.1476-61.629-77.864-29.7-87.589-82.115-22.081-48.335 1.0325 40.181 24.062 41.683 35.499 4.8038 62.417 20.564 56.942 60.202 13.726 16.594 39.794 42.547 7.1591 14.071-15.167-10.887-12.521-52.096-24.254-54.652 5.067 40.842 38.537 64.417 47.408 102.66 3.5399-19.645-21.298-46.389 6.252-17.316-4.4732-15.947-31.768-47.115-4.6161-18.955 13.307 25.322 28.461-33.116 59.258-36.518 9.9456-15.252 58.722-40.789 17.044-18.86-15.584 15.981-43.608 26.322-58.669 30.772 36.664-19.737 73.295-48.822 117.71-51.451 24.584-27.136 54.901-52.934 63.556-89.382-4.3188-3.9189 13.84-14.106 4.7176-14.685zm42.482 0.29687-0.375 0.91211zm-413.95 1.2852c-11.018 27.382 66.646 48.812 14.358 25.333-10.621-6.3555-5.9561-17.36-14.358-25.333zm194.57 15.014c14.022 34.383 18.324 25.408 0 0zm6.8476 22.512c-4.9434 19.408-4.1673 44.839 1.4043 11.627l-0.50679-5.8999zm238.61 16.713-5.1289 1.2207zm-15.098 3.8438c-6.7832 3.8316-15.187 11.066 0 0zm-92.547 1.0254c-7.502 12.451-14.217 22.729 0 0zm-332.71 5.1289c2.552 5.4048 77.449 20.509 31.378 5.3856-10.386-2.3241-21.797 0.35752-31.378-5.3856zm102.53 11.428c-5.5687 9.2987 11.075 13.382 0 0zm110.71 2.7891c4.997 15.071 24.819 43.628 1.6992 13.377 6.3617 13.109 11.603 39.81 16.899 10.831-5.465-8.5954-14.518-15.06-18.598-24.208zm104.43 4.4746-3.918 6.1387zm65.527 2.6699-3.0781 1.8926zm-304.75 1.4453c9.8224 2.9411 9.8224 2.9411 0 0zm245.82 0.93554c-5.9426 17.412-56.824 30.425-16.947 19.102 6.4709-4.4915 16.858-10.031 16.947-19.102zm-12.154 3.4316c-2.8006 3.0318-2.8006 3.0318 0 0zm152.06 2.498c-7.3952 0.81319-8.7696 1.1177 0 0zm-99.312 0.30078c-3.5461 0.66109-3.5461 0.66109 0 0zm113.39 0.82422c-3.6562 0.36344-3.6562 0.36344 0 0zm-123.34 2e-3 3.2168 1.7754zm12.189 0.39843 1.3106 0.36524zm89.051 0.0996-1.209 0.89063zm-94.689 0.48047 1.0059 0.83594zm-70.342 4.9512c-20.498 4.279-40.839 7.7919-8.7578 1.8418zm73.658 0.1836 6.5684 4.7422zm81.258 0.82812-3.498 2.9375zm-369.11 0.18945c-34.054 5.0936-64.363 18.216-96.793 10.037 33.21 13.39 72.265-3.1553 96.793-10.037zm295.39 1.6973c9.9084 8.122 9.9084 8.122 0 0zm62.145 4.4356-2.709 0.0215zm3.668 0.81054c6.7256 8.636 8.4558 10.628 0 0zm0 0c-5.2378 0.72615-8.2697 0.85676 0 0zm-307.9 0.875 1.8867 3.5312zm271.03 2.8184c-10.713 2.3951-10.713 2.3951 0 0zm-186.86 5.0606c-9.5646 13.125 0.90132 13.177 0 0zm-4.2949 0.55078c-12.444 15.212 0.58073 10.175 0 0zm22.086 5.7852-0.51172 0.80664zm-5.3301 0.48242-4.832 3.2793zm227.66 1.1074c12.726 9.4978 19.046 13.151 0 0zm37.955 7.0117c-7.3088 0.99335-8.8381 1.1602 0 0zm-14.326 1.8594-4.0527 0.20507zm-268.07 0.12695c-14.965 6.1948-14.965 6.1948 0 0zm-69.283 2.1641 0.9707 7.2383zm1.3242 8.8281c2.7888 7.7451 2.7888 7.7451 0 0zm41.43 2.7266c-8.1412 9.3035-19.596 16.941-3.9785 4.4629zm23.51 1.3223-4.2695 1.625zm-0.86133 2.0625-0.53125 0.54102zm-1.1602 0.88086-1.6524 0.45118zm80.332 0.16602c-13.428 6.9901-68.542-3.5685-23.349 6.6609 19.637-11.472 77.478 14.447 29.77-5.515zm-84.316 1.0547 0.0547 0.17968zm0 0c-10.957 9.3946-47.719 17.66-14.68 8.1133l6.5215-3.3594zm0.17578 0.32812 0.35938 0.25196zm-54.678 0.83203c15.287 11.703 30.097 19.527 0 0zm-17.328 0.043c3.9932 17.767 26.947 46.958 7.199 12.993l-3.9783-7.4382zm70.318 2.0606-2.877 2.3535zm-17.395 0.37695-1.2969 0.95117zm-3.7812 1.0684 0.34375 0.3418zm139.78 2.1894-1.0449 1.166zm-123.21 0.24219-1.8789 1.7598zm-3.5176 0.25977c2.8364 1.6766-1.1411-0.4516 0 0zm-71.15 1.832c-0.7694 50.9-57.523 56.022-85.234 90.391-33.577 14.441-61.91 31.813-89.819 52.014-11.942 9.4502-40.785 47.504-25.931 49.626 25.84-18.545 86.098-27.709 96.064-48.105 16.718-18.182 28.74-14.755 5.0547 5.1543 22.981-12.164 54.428-43.909 78.76-63.287-3.1972 20.213-34.349 45.626-38.821 59.112 9.2708-13.119 22.659-1.2548 23.412-7.3833 16.726-34.582 7.456 48.379 15.021 5.4494-7.6034-16.198 8.3601-57.383 25.398-72.679-16.659 16.665-14.998 63.065-7.4334 16.575 31.463-24.386 32.59-58.958 5.5527-85.365l-2.0254-1.502zm38.975 3.7422 0.63477 0.34179zm1.5391 0.74023c13.798 8.3511 1.3316 1.212 0 0zm13.752 9.7773 1.7442 1.8145zm-19.926 3.8027-0.35546 0.65039zm-25.074 2.8535 1.9727 5.4629zm3.291 1.4062c2.368 5.2527 4.3108 10.626 0 0zm4.0449 6.6602 0.66016 1.9883zm-4.4023 0.50195c1.9239 9.2173 1.9239 9.2173 0 0zm490.82 1.7676c-45.838 10.93-87.694 33.377-123.98 62.912-45.007 42.987 87.43-22.734 31.102 7.6892-41.309-0.74565-29.853 68.204 5.7919 41.293 43.674-12.949 38.187-76.532 91.335-77.388 18.43-25.016 70.619 27.63 34.265-12.084-11.943-8.4769-25.149-16.443-38.518-22.422zm-495.79 3.1758-0.57226 2.7168zm21.789 5.5801c1.8246 20.943-53.561 67.544-11.911 29.896 6.2044-7.6198 17.62-19.266 11.911-29.896zm473.86 7.3535 2.5273 0.30468zm-3.0566 1.3438 2.1914 0.87109zm11.131 1.0332c2.8249 2.8517 2.8249 2.8517 0 0zm8.3008 0.94727 1.5195 0.24414zm-559.11 9.5547c-7.7475 3.8985-19.027 12.46-4.9394 2.6992zm-67.432 0.18164c-3.2439 21.336 26.676 47.835 6.9452 11.689-2.3027-3.842-4.4933-8.1006-6.9452-11.689zm-23.008 0.54883c8.8504 17.484 48.014 51.61 15.782 14.092-5.1216-4.6886-9.1587-11.229-15.782-14.092zm656.72 2.1289c-46.702 8.0382 3.7685 44.137 9.6142 5.168l-4.3994-3.9454zm-40.521 1.8574c-8.2803 5.7406-16.602 9.6388-3.0352 2.166zm8.4609 2.7637-2.6524 0.90235zm-581.31 1.2383c-3.5295 23.829 6.8287 19.5 0 0zm577.23 0.20899-1.4766 0.62109zm-484.35 1.6777-1.0215 0.92774zm537.25 1.3887c-40.438 25.528 43.345 23.762 0 0zm-66.271 0.97461c1.2934 0.74291 1.2934 0.74291 0 0zm-8.1367 1.0312c-7.4521 2.047-12.082 2.83 0 0zm-502.1 0.21289c-3.5293 1.066-3.5293 1.066 0 0zm526.71 3.502c-7.1438 7.413-39.202 3.6472-24.643 28.463 26.213 16.417 62.034-34.626 20.733-13.444-9.3768 6.6253 6.501-10.225 3.9099-15.019zm-31.609 0.48437c2.4482 1.0135-0.92499-0.26869 0 0zm-563.95 1.0059 0.23828 0.5293zm90.922 3.1504c-3.8431 7.0183-3.8431 7.0183 0 0zm492.22 0.14063-0.57031 0.27343zm-36.873 1.8965 0.42188 0.14258zm-1.0371 0.54102c-11.464 2.6698-13.137 2.9318 0 0zm-573.16 0.95898c15.914 17.275 29.785 13.076 1.0703 0.4375zm609.31 2.8281-3.2598 3.9668zm47.863 0.10351c-24.509 5.3161-31.022 32.461-1.1914 9.9121 15.289 7.425 14.736-13.091 1.1914-9.9121zm-541.65 3.6816-1.2617 2.9609zm-133.45 1.5371c19.302 16.982 46.012 12.85 0 0zm64.775 0.26953-3.3008 2.2578zm512.18 1.5703-3.1309 1.1934zm-551.24 1.9238c-9.0842 1.9479 20.31 8.986 0 0zm544.33 0.97266c-5.6943 3.2432-5.6943 3.2432 0 0zm-574.81 1.2598c10.306 12.174 37.692 6.6843 0 0zm531.7 0.57812c8.7316 4.6715 14.742 6.041 0 0zm-2.9473 0.4043-1.1348 0.33984zm35.828 2.5469c0.9654 0.31919 0.9654 0.31919 0 0zm0 0c-1.9506 0.5591-1.9506 0.5591 0 0zm-34.66 1.3008 1.7031 0.1211zm-429.85 1.8691c-6.0289 5.4716-8.7465 7.8182 0 0zm-50.881 2.2031-5.1445 2.1504zm562.01 0.93945c-16.554 13.424-12.69 38.829 0 0zm8.6016 0.11524c-13.289 22.098 8.9059 3.8779 0 0zm-58.098 0.69336-2.8555 4zm-524.77 0.18554-3.4414 1.9043zm663.71 0.23243c-47.874 3.0258-93.458 17.999-132.68 45.975-44.215 14.413-85.303 36.382-122.91 63.669-21.789 19.244-43.276 58.701 3.9637 41.075 27.464-25.406-16.818 18.676-14.802 6.6483-32.765 14.756 84.835-18.362 49.496-7.6289 35.149-26.83 84.846-21.965 116.48-55.929 39.306-19.495 69.29-47.973 111.15-62.049 40.699-8.528 16.722-25.845-10.7-31.76zm-577.47 2.0469-1.2754 3.623zm392.36 0.61914c-43.966 1.414-91.008 19.019-116.38 56.759-7.219 17.129 3.8172-0.11359-7.9022 14.183 20.109 40.265 74.108-7.6625 103.47-19.775 21.106-5.9986 44.931-33.143 34.356-33.128 3.1123-8.8605-3.1824-20.069-13.543-18.039zm-421.66 0.54297-1.9863 1.1758zm112.65 1.0723c-18.853 7.6332-7.9292 12.084-20.861 22.324 7.7477 10.627 59.62 31.569 52.176 23.613 18.094 6.9438 78.21-0.85338 28.246-10.255-25.105-7.9418-68.506-19.385-72.491-20.501 1.8866 5.6155 14.226-13.608 12.93-15.182zm-14.287 0.38868c-17.775 13.151-12.658 33.607 0 0zm-101.31 0.33008c-6.4196 5.9119-7.8575 7.2116 0 0zm-67.27 0.16015 1.6582 1.3144zm63.678 0.15235-0.4375 0.18945zm-61.77 1.5723-0.0898 0.29102zm157.25 0.70313c-3.7392 7.2875 5.4285-0.31295 0 0zm356.61 0.12695c-4.0139 3.7929-4.0139 3.7929 0 0zm-334.6 0.0684c0.87721 0.016-1.0334 0.0597 0 0zm0.4707 0.20703 0.16211 0.23242zm-192.48 0.0859-2.0078 1.6699zm188.42 1.8652-1.5625 1.1113zm-58.586 0.28125c-2.3905 18.72 2.9084 20.727 2.2148 8.0176 3.3911 28.208 7.23 2.0182-2.2148-8.0176zm-122.02 0.58203-2.416 0.74024zm495.03 3.4707c-1.4389 3.705-2.0752 6.9756 0 0zm-356.27 0.10742c-5.4842 28.58 5.4049 22.214 0 0zm-110.8 0.16015 0.39844 0.33789zm101.77 0.0566c-1.2154 23.134 12.901 24.485 0 0zm353.29 1.084c-14.59 5.9585-14.59 5.9585 0 0zm216.12 0.46289c-9.3674 5.7104-12.668 6.9267 0 0zm-548.05 0.1543c-9.5718 6.9708-6.5065 6.9689-6.9004 14.051 16.958 18.643 4.0054 5.6022-6.7618 13.156 4.1071 5.0808-9.9453-10.669-8.4202-3.9652-19.854 0.53957 34.234 41.34 52.175 41.509 21.927 12.433 81.032-16.626 30.712-25.079-18.757-19.626-58.097-8.8645-64.904-28.512-6.0675-7.1414 11.71-8.7713 4.0996-11.16zm34.975 1.0781c-8.6448 0.584-0.46765 6.7747 0 0zm-196.89 0.38867-2.5918 3.0781zm38.062 0.61914c-1.39 1.6145-1.39 1.6145 0 0zm54.729 0.90039 0.82813 0.59375zm0 0c-0.85547 0.83338-0.85547 0.83338 0 0zm-79.879 0.30469c-0.28308 7.9182 4.9138 6.1513-0.75586 2.1172zm28.426 0.40235-1.959 3.7148zm121.75 0.86132c-6.3528 11.66 3.7845 14.305 0 0zm3.8496 0.46289c-7.5919 8.1832 8.3199 18.423 0 0zm539.39 0.72461-4.2344 1.9219zm-670.75 0.20704 0.0918 0.0957zm-8.0312 0.30664c-0.30204 7.7203 0.28323 0.13507 0 0zm673.31 0.44535c-3.9743 1.4857-3.9743 1.4857 0 0zm-620.15 0.01c-28.1 13.572-41.959 23.843-61.955 51.91 1.2475 42.465 64.734 42.218 78.535 82.364 19.619 40.774 68.077 64.522 110.82 47.917 16.618-25.443 36.468-70.5-10.288-75.498-41.751-21.11-84.777-32.822-130.91-23.45-29.162 18.147-50.785-35.076-34.029-38.7-1.5746 17.279 4.3967 7.3927-4.2637 13.033 0.19325 33.23 42.48 21.26 53.24 20.156-34.365-8.3154 35.241-1.2931 49.852-5.1267 19.992 3.1756 26.955-1.6261 11.845 5.3962 44.613 8.5856-26.555-33.689-22.646-47.484-7.931 0.24194-11.128-13.077-17.205-16.033 5.6077-12.163-43.335 13.647-22.998-14.484zm598.23 0.0977-8.1113 4.4121zm-159.42 1.6602c6.0041 3.6904-7.5307 7.2178 0.52924 4.5078 6.8304-13.348-26.692 8.9056-0.52924-4.5078zm185.67 0.2539c-4.9203 1.3595-4.9203 1.3595 0 0zm-577.26 0.50196c-0.70839 8.6306 9.5982 7.9524 0 0zm64.344 1.0898c4.4103 1.5099 5.5022 2.0544 0 0zm0 0-1.3672 0.12109zm-206.14 0.83761c-1.5738 1.6698-2.0423 1.8835 0 0zm216.31 0.53711 1.4238 0.0566zm266.64 0.39844c-4.8175 0.42748-4.8175 0.42748 0 0zm0.83984 0.0391 2.2988 0.33789zm-438.83 0.23633-0.65234 0.95117zm441.63 0.24804c0.0707 0.34292 0.0707 0.34292 0 0zm41.113 0.56641c2.5428 2.2215 3.1271 1.5272 0 0zm0 0-5.7656 2.3594zm211.12 0.16602c-11.183 20.376-5.1394 24.792-10.764 2.4282-29.648 14.552 5.3365 62.069 7.0275 13.381-0.28313-4.4306 7.247-12.712 3.7363-15.81zm-551.24 0.23632c-1.8211 10.572 17.593 7.6217 0 0zm-184.01 0.43946c-7.5487 2.5979-7.131 3.1712 0 0zm7.1582 0.16015-0.13867 0.043zm673.58 0.16993c-7.6585 12.216-13.182 14.975 0 0zm-661.87 0.47851c4.0463 1.0118 0.24209-0.10687 0 0zm-10.738 0.5-0.10938 0.41016zm-3.084 0.625-1.8516 0.0957zm456.68 0.16211-2.6816 1.2109zm19.068 0.43164c-7.4218 1.2264-9.6897 1.4049 0 0zm206.63 0.11719c1.8271-0.30179-6.363 0.87299 0 0zm-551.19 0.48824c-8.336 14.212-1.5633 31.812 0 0zm90.422 0.64062c9.5925 2.8883 11.419 3.0964 0 0zm-236.97 0.22071c-7.3437 2.5171-10.056 3.4745 0 0zm722.47 0.10742c-16.734 5.7121-6.9183 61.266-11.498 17.162-8.8672-23.092-15.048 19.871-6.5781 26.285 2.0954 18.998-19.965 4.4147-30.79 26.49 15.804 8.1288 46.634-28.053 33.819-26.474 17.32-1.8796 10.102-32.054 15.047-43.463zm-256.42 0.17969-0.98047 0.0645zm7.25 0.0176c-5.1555 4.2028-5.1555 4.2028 0 0zm-234.73 4.7539c3.5545 0.0488 3.5545 0.0488 0 0zm300.86 0.11719c-31.747 6.6546-3.435 20.957 0.72461 0.26758zm-77.869 1.6699c-9.1399 11.346-10.194 12.227 0 0zm-436.82 1.1504c-0.5258 1.3266-1.4778 2.6012 0 0zm164.5 0.37891c3.0886 1.6488 3.0886 1.6488 0 0zm72.846 0.0684 2.1074 0.25976zm-4.582 0.26953-1.1172 0.32031zm22.148 0.0215c3.7794 0.48624 3.7794 0.48624 0 0zm397.69 0.57032c-7.7576 2.0178-7.7576 2.0178 0 0zm-192.38 0.125-1.5156 0.70898zm-14.492 0.15812c-3.8191 2.0309-3.8191 2.0309 0 0zm-430.79 0.86328-1.793 1.4414zm442.39 0.66602c9.9966 1.451 11.911 1.5266 0 0zm-445.88 0.29882 0.33594 0.31446zm153.44 0.0488c3.5321 0.83077 5.065 1.4626 0 0zm0 0c-1.2676 0.2307-1.2676 0.2307 0 0zm-1.4062 0.41016-0.92383 0.58984zm100.75 0.0293 0.0371 0.20899zm-0.0859 0.42579-0.58984 0.50781zm-134.81 0.58203c8.545 18.75 34.224 35.517 7.6728 6.1766l-6.247-4.5008zm-158.78 0.0918-0.45703 0.6836zm675.92 0.80665-4.002 1.5352zm-499.99 0.79101c1.0427 1.6465 1.4088 2.9331 0 0zm12.107 0.40625-1.2871 0.67578zm-2.4961 1.3848-2.1856 1.4297zm-165.77 0.6582-1.2949 0.35547zm271.82 0.52539c-20.089 3.1541-16.224 11.878 0 0zm-266.28 1.668c-6.5902 2.9554-6.5902 2.9554 0 0zm128.87 0.0644c-7.2114 22.558 70.417 53.205 21.885 54.203 48.362 21.167 11.014-23.325-7.2122-37.336-4.7121-5.7086-8.3652-12.652-14.673-16.867zm301.02 0.041-1.0898 0.38281zm-392.2 0.55468c3.0704 0.23814 3.0704 0.23814 0 0zm601.01 0.73633c-6.3068 8.1241-6.3068 8.1241 0 0zm-593.72 0.65625-3.0449 0.49024zm25.275 0.12891-3.0879 2.7148zm421.57 0.13086c-30.358-1.1861-26.217 31.396-2.8659 7.7467l3.6589-7.0846zm-478.72 0.19922c-11.195 4.3108 3.1153 10.199 0 0zm612.48 0.40625-0.64453 0.875zm-226.57 0.0273 0.75976 0.87695zm260.84 0.51563c-53.663 18.373 0.3246 54.68 16.997 18.629-1.7782-43.559-49.685 27.41-16.997-18.629zm-675.1 0.35937-2.2109 0.38281zm113.81 0.20703 1.2949 1.7734zm533.44 0.0801-2.334 3.4219zm-628.27 0.66602c-20.852 3.1762-39.977 42.919-8.8594 23.43 10.893-5.7495 16.384-12.554 8.8594-23.43zm374.33 0.27734c-28.674 0.15229-3.7432 19.859 0 0zm-14.447 0.57031c-16.117 21.963 2.5206 16.569 0 0zm-303.77 0.65821 1.1426 0.24414zm566.68 0.4082c-3.2482 5.7758-4.3615 7.4403 0 0zm-525.78 0.084c2.2152 1.8492 2.2152 1.8492 0 0zm-124.81 0.65625c-10.184 2.0427-20.171 5.4612-4.2734 0.84571zm379.55 0.34571c-18.268 6.4049-17.427 41.962-2.9252 7.9254-3.9416 1.1246 7.5495-7.2396 2.9252-7.9254zm-80.131 0.73047c-5.3258 0.0318-24.083 21.825-24.661 46.302-2.6294 65.956 1.0171 132.4 0.0339 198.41 19.386 25.556 17.934-51.564 17.132-66.226-0.64397-50.598-2.8445-101.44 0.0135-151.89 18.099-25.24 9.6299-33.177-1.0634-7.1061-6.114 0.98557 16.489-21.848 8.5449-19.486zm-165.37 0.0703-3.9922 0.24023zm228.75 0.38476c-17.349 9.2856-16.684 39.639-2.7852 13.068-11.796 62.952 2.236 127.04-7.1659 190.33-0.20535 19.356-4.6859 96.634-6.2958 34.9-5.2315-49.458 12.289-98.175 3.6142-147.71-4.0044-16.428 7.4503-81.475-11.671-39.49-2.0652 39.335-5.8523 80.391-11.239 117.67 1.4816-51.367-3.021-105.9 17.33-154.21 17.095-38.387-26.589 42.539-17.308 60.38-4.9968 49.177-5.9702 99.093 1.0892 148.12 7.4782-41.087-5.0098 37.915 4.8624 53.004-0.53022 26.595 20.857-30.675 21.136 6.0554 1.0378 47.734 17.194-35.819 28.158 3.5828 7.8217-40.454 7.8813-87.216 1.1227-127.15-21.895 12.162-1.8108 68.282-12.422 79.77-0.57081-55.653-3.2012-112.14-1.5793-168.27-0.44634-31.455-10.424-18.904-11.981 6.5227-2.1044-19.684 7.0647-73.317 9.4494-73.3-8.4734 11.485 6.5138-3.5102-4.3144-3.2677zm-226.87 0.0469c3.3322 7.1754 3.3322 7.1754 0 0zm184.63 0.084c-24.305 3.4249-5.9744 27.165-12.545 28.339-11.096 41.016-4.4224 82.778-5.6809 124.59 0.62428 6.6167-1.9656 14.023 1.1255 19.988 0.66249-17.819 1.8415-58.397 0.59739-17.42 2.485 24.278-7.1923 70.601 8.9788 79.305 3.6625-12.729-0.75933-90.672 4.7793-32.761 0.91596 17.709 1.8999 68.763 5.4875 71.632 7.71-52.383-15.631-104.84-4.6069-157.37 5.2762-32.39-9.6292-84.116 7.598-104.15-8.9065 24.548 0.1044 33.828 6.9482 3.3262 13.365-35.378-31.937 9.2158-19.632 28.032-9.7321 46.545-1.6338-38.231 6.951-43.517zm98.322 0.041-0.21289 0.95312zm-27.143 2.2422-0.31054 0.45703zm-135.64 0.27929c4.6039 1.297 8.6845 2.4397 0 0zm119.68 0.18946-1.9336 1.8848zm-60.91 1.0058 0.46875 0.0996zm0 0c-0.28085 0.29786-1.3065 0.9125 0 0zm1.4277 0.33594c0.88286 0.39805 0.77379 0.90036 0 0zm-1.9648 0.48047c0.17578 0.17108 0.794 0.69487 0 0zm-52.789 0.54883c-2.1967 0.79877-2.1967 0.79877 0 0zm385.69 0.10156c2.8506 4.5382-8.7776 5.2778 0 0zm-652.52 0.10938c-37.46-0.0211-17.396 57.256 0.18164 16.574 1.6787-4.5985 11.752-17.545-0.18164-16.574zm317.24 0.09577c-0.46113 3.8154-0.76712 4.9647 0 0zm-52.678 1.082-0.97851 0.94727zm-183.32 0.25781 5.0527 0.52344zm70.648 0.27344 1.5352 1.6582zm-59.555 0.6875c-0.83125 0.1444-1.5427 0.18192 0 0zm-1.3789 0.64453-0.0762 0.0918zm-0.29688 0.29492-0.15429 0.11329zm-0.34179 0.23633c-0.66451 0.37717-0.66451 0.37717 0 0zm-111.86 0.19141-2.0644 1.832zm111.39 0.38086c4.0082 0.0744-2.826 0.0317 0 0zm226.19 0.42969c-0.76186 1.9393-0.76186 1.9393 0 0zm172.23 0.89062c-22.996 7.0022-17.665 24.633 1.2286 7.8114 8.9736 1.9684 6.7024-9.289-1.2286-7.8114zm-385.21 0.71094-0.26758 0.55469zm90.17 0.41015c-18.255 16.08 57.41 32.052 23.92 10.227-8.2836-2.6246-15.973-7.06-23.92-10.227zm102.19 0.16016c-2.5368 3.9796-2.5368 3.9796 0 0zm-74.221 0.50195c9.8019 2.5428 9.8019 2.5428 0 0zm-121.61 1.6152-2.5156 0.95312zm-47.711 0.16992 0.18164 0.59375zm264.86 0.17969-1.2988 3.7676zm36.908 0.43945c-11.162 12.218-2.2315 19.587 0 0zm-81.607 1.3379c-8.4333 14.826-1.5467 21.022-8.7774 2.9629-52.246 18.83 25.14 33.469 8.7774-2.9629zm-212.87 0.51953c9.5362 3.4062 0.17993-0.20798 0 0zm67.385 0.65039c3.2503 0.056-3.2781 0.041 0 0zm533.34 0.4961c-10.969 4.7117 1.3227 20.13 0 0zm-2.2812 10.199c-34.788-19.388-53.732 34.785-59.997 51.422-19.554 33.385 14.876 15.498 25.385 0.43446 10.309-14.033 84.177-43.127 38.412-48.398-18.668 6.7058-25.456 12.702-3.8003-3.4582zm-535.86-10.127-4.2871 0.99024zm506.41 2.4219-5.2539 2.4297zm-604.26 1.1582c-7.8436 7.3639-39.583 8.1895-22.497 24.439 10.305 18.982 27.153-12.634 22.497-24.439zm20.217 0.11328c-16.38 21.094 16.073 76.142 10.742 27.205-4.0207-25.813-6.5539-18.405-8.1459-3.5862-1.6582-7.5504 0.96581-16.893-2.5963-23.619zm497.94 0.5625c-15.259 15.833-16.972 16.956 0 0zm-159.81 0.96485c-9.7283 14.623-7.4143 63.458-1.8937 19.674-0.44818-5.4967 4.9246-15.253 1.8937-19.674zm313.71 0.79882c-20.187 5.6786-14.516 15.973 0 0zm-727 0.50977c-17.592 16.869 18.941 55.408 22.733 18.187-15.385 19.844 2.0503-9.518-18.192-12.625l-2.1424-3.8425zm364.18 1.3066 0.20508 0.53711zm81.322 0.0566c-4.6273 16.555 15.768 14.213 0 0zm-338.21 0.16602 0.375 1.0273zm379.68 0.89062c-19.36-5.4177-39.88 11.278-25.178 19.725 0.0971-9.6367 31.361-15.633 25.178-19.725zm162.6 0.43164-7.668 4.8301zm-520.3 0.46094-1.959 1.2305zm68.072 1.5215-3.084 1.877zm226.24 0.11133c-3.2893 33.188-10.192 74.843-2.1055 104.42-5.0879-34.3 5.6591-72.62 2.1055-104.42zm-159.54 1.9473c-46.286 23.093 51.968 25.921 3.0801 0.68945zm68.611 0.77148c-4.2287 19.194 3.0839 43.506 1.71 8.7878l-0.29986-8.0124-0.78907-0.20117-0.62109-0.57422zm-178.91 0.14453-2.9082 0.67188zm335.45 1.3125c-33.13 6.9688-17.487 31.075 0.47936 2.7877l0.35898-1.9168zm58.74 1.7246 0.0762 0.29688zm5.1055 0.72071c7.6521 0.19441-9.233 0.44896 0 0zm-308.1 1.5332c-12.624 6.2751 12.601 7.1869 0 0zm-18.566 0.0566c-2.224-0.48446 0.3661 3.0205 0 0zm400.44 1.709c-8.4241 6.4032-8.4241 6.4032 0 0zm-414.39 0.10938 0.125 0.31445zm0.16797 0.46484c-0.24072 1.718-0.14803 1.046 0 0zm5.4062 0.47852-0.27735 0.59765zm411.58 0.24219-6.5215 4.8555c5.1126 3.8771-42.995-32.214 6.5215-4.8555zm-397.07 3.9297c-4.9876 3.0119-7.7461 4.351 0 0zm-124.64 1.8516c8.0246 7.2565 9.0008 7.9232 0 0zm11.025 1.2031-0.0645 0.56836zm590.92 0.93164c-6.6368 20.715-42.639 34.16-47.588 48.098 18.956-9.4931 44.97-26.754 47.588-48.098zm-680.77 0.37305c-29.922 24.54 41.446 9.461 0 0zm578.68 0.95117-6.5039 1.8008zm-489.43 0.91797c20.715 12.67 53.56 46.951 17.242 12.432-5.5451-4.4157-11.324-8.5322-17.242-12.432zm-24.281 1.1328c-22.801 36.938 45.503 36.066 13.105 4.1621-16.35-8.5778-15.672 30.168-13.105-4.1621zm602.71 2.8379c-17.372 0.59123-68.442 53.378-26.551 26.887 6.9242-11.03 30.405-10.839 26.551-26.887zm-206.52 2.0489-1.7461 4.5801zm133.53 0.66797c-25.605 8.0756-64.853 10.214-29.369 34.894-14.049-17.988-37.32-18.196-9.3591 1.7093 9.5416 15.057 38.815 22.342 34.264-4.1152-23.036 17.56 28.358-28.529 4.4648-32.488zm-37.738 0.0996c-13.489 3.5361-16.175 4.3294 0 0zm-423.73 0.084 3.6562 0.34961zm408.91 2.9883 0.51172 0.14844zm-448.03 4.5547c3.9246 16.374 35.986 55.648 7.0821 23.133-33.288-33.836-9.2301 55.383 23.87 29.727 12.425-17.135-15.664-45.511-30.952-52.86zm-31.93 0.60546c-0.0629 0.45108 0.30363 1.0628 0 0zm166.04 2.4824-0.14648 0.3711zm-200.83 3.1211c-35.714 8.8076-81.175 12.252-99.695 49.227 32.992-16.77 77.77-6.285 110.36 13.452 42.159 39.127 79.578-7.6927 30.473-40.571-13.707-7.016-24.67-21.762-41.139-22.107zm423.85 0.57421c-2.2762 3.2265-2.5492 5.0036 0 0zm-213 1.4316c-0.31138 0.25811-0.0121 0.057 0 0zm0.91211 0.37109 0.23633 0.41601zm64.973 1.5469c-3.245 59.002 4.1682 118.43-4.125 176.38-10.475 16.678-9.5565 55.189-0.61718 19.002 16.108-9.3971 7.9096-71.172 7.7002-101.48-0.81606-31.39 3.0022-62.781-2.958-93.902zm171.76 1.1797 0.40625 0.31836zm-1.7246 0.0254c-10.309 5.7354-12.234 6.5418 0 0zm-227.73 1.1914c7.1056 11.876 1.5817 19.576 2.4688 1.2695zm198.83 0.75c-1.7442 0.94956-1.7442 0.94956 0 0zm-263.67 0.38281-2.1777 0.0625zm269.71 0.90625c7.3192 3.4363 10.125 4.0285 0 0zm261.74 1.2871c-17.594 2.9662-77.078 28.59-64.809 28.652 24.067-4.3808-40.078 6.966-45.058 22.826-41.035 16.826-68.333 52.367-100.56 81.083-25.962 11.266-72.556 56.827-15.31 56.084 44.928 3.5 77.262-31.713 118.78-40.116 43.286-12.225 64.426-49.84 87.559-83.822 27.902-8.4476 92.486-58.551 31.749-62.237l-7.0566-2.2207zm-668.16 0.99023c6.0016 3.4375 6.0016 3.4375 0 0zm-18.533 1.5508-0.91406 0.4746zm501.73 0.0371c-39.013 15.81 73.147 41.133 22.398 13.671-7.8558-3.8532-14.162-10.586-22.398-13.671zm-500.97 2.4238 7.1172 2.1543zm24.303 0.32227 3.8516 3.5195zm79.543 2.8555c3.7407 7.3018 3.7407 7.3018 0 0zm123.79 1.7207-0.2793 0.91602zm-26.912 0.64453c6.5978 9.9094 6.5978 9.9094 0 0zm-246.4 0.97656c-17.322 0.81461-34.569 2.2853 0 0zm265.75 0.22852 0.25976 0.1543zm373.47 1.1602c-8.3188 10.402-53.965 18.449-15.583 15.798 4.01-0.0143 26.029-13.138 15.583-15.798zm-661.48 0.25781-1.1191 0.44922zm177.18 0.31055 0.99609 0.6582zm111.62 8e-3c-0.24229 0.38954-0.24229 0.38954 0 0zm13.092 0.39648c-1.7279 23.003 6.3758 52.58 5.3711 11.791l-2.2599-5.9618zm-13.352 0.20703-0.22265 0.89454zm3.2383 0.77735c-0.0347 4.3468 0.012-0.19752 0 0zm505.52 1.4726c3.8664 17.147-1.9703 87.784 8.7422 43.414 2.7675-14.546-4.1071-29.82-8.7422-43.414zm-619.3 1.7754c2.3976 2.4887 2.3976 2.4887 0 0zm97.045 2.5137c-3.6717 5.0029-6.4442 2.7108 0 0zm18.152 0.27929-0.66992 1.8594zm-13.244 1.4395c1.558 3.2666 1.558 3.2666 0 0zm-100.09 0.48828 0.0527 0.92968zm344.69 0.23242c-31.492-11.131-93.525 24.857-66.061 47.854 19.302 11.665 92.813 6.5765 84.265-31.818-51.138-18.36 54.662 11.3 19.997 7.2429-29.1-1.9393-3.4582 30.508 7.3129 4.711 39.66 5.7924-23.036-2.3984 7.3374 12.993 31.075 8.6888 33.629-20.54 2.4507-23.668-15.09-14.358-35.16-17.96-55.302-17.315zm-236.75 0.99609c-0.72376 1.5052-1.5922 3.101 0 0zm451.17 0.0215 0.47461 0.0625zm-454.75 1.0059-1.4219 0.34375zm-2.707 0.0684c0.99518 0.46249 0.99518 0.46249 0 0zm466.26 0.67578c-2.0448 2.2395 4.1136 1.1653 0 0zm-458.84 0.0351c2.8901 0.47713-3.0594-0.0294 0 0zm507.85 0.40235c-10.55 22.478 5.3663 42.008 0 0zm-88.098 0.64258-6.375 1.1094zm-519.57 0.5996c5.2915 4.2636 13.317 12.148 3.4434 2.8828zm146.38 0.17383c0.90659 14.186 0.90659 14.186 0 0zm443.45 0.0137-4.4844 3.9473zm-530.42 2.6443c6.4179 1.2307 11.277 1.6542 0 0zm455.56 1.0781c-22.868 2.2839-49.882 10.009-11.941 1.3457l6.4043-0.93554zm2.2559 0.0566c-8.9587 7.1682-3.3356 1.4614 0 0zm48.67 0.13281 1.7344 1.4356zm-228 2e-3c-4.2469 0.14604-4.3068 0.1269 0 0zm240.16 1.7051 0.87305 0.46484zm-515.15 0.25585c12.086 3.0083-4.3414 13.136 5.7051 1.7793zm-47.012 0.22461c4.1927 3.486 4.8917 3.99 0 0zm80.396 0.084-0.66601 1.7793zm482.32 0.4043-0.23828 0.39453zm-767.7 0.72265c-44.041 1.9736 36.438 41.031 28.582 5.5445-10.273 3.349-18.596-5.2906-28.582-5.5445zm767.16 0.94727 0.0293 0.43945zm-3.4199 0.19922c4.8511 1.4798-1.4714-0.45757 0 0zm-5.8457 1.1094c-6.8964 2.7938-8.4788 3.4857 0 0zm-482.41 0.78711c3.0761 0.42092 5.4354 0.89093 0 0zm0 0c-15.389 2.5666-17.507 3.0708 0 0zm7.5234 0.125c6.1592 3.8843-4.5085 18.92-5.1582 17.426 4.4016-2.9347 9.9083-13.36 5.1582-17.426zm-105.28 1.8789c-17.094 28.151 49.119 65.499 20.635 14.882-8.0074-15.136-14.356-13.954-14.021-5.3253l-3.4979-7.7525zm121.36 0.59961c-13.636 9.4173-18.305 47.714-6.166 27.121 1.601 21.236 12.994-26.616 6.166-27.121zm-99.334 0.17968 4.084 4.0664zm-33.133 0.36328c-32.235 18.601 31.494 40.408 2.9267 3.9307l-2.9267-3.9308zm112.31 0.0977c1.9561 0.84572 3.1419 1.1477 0 0zm477.62 0.25586c-9.6015 3.8754-9.6015 3.8754 0 0zm-32.301 1.2715c2.4688 0.81546 1.532 0.50567 0 0zm-442.44 0.0801-0.15821 0.99024zm-128.65 0.0312c-21.75 5.307 6.2361 24.647 0 0zm-111.26 0.0625c-44.7 10.158 23.7 58.137 42.199 51.006 21.017-22.87-17.69-27.762-26.584-16.365 0.857-15.641 47.121-14.864 9.3963-26.739-15.064-3.7982 6.9745 21.121-12.504-1.3256l-5.7116-4.5777zm637.16 2.0156c-16.32 3.3577-25.272 4.3886 0 0zm-698.95 0.0488c14.159 29.761-19.589-17.678-1.9998 13.786 10.149 16.553 11.176 33.348 11.85 2.3338-0.39415-6.4817-3.3145-13.663-9.8499-16.12zm744.02 0.0176 0.625 0.33008zm57.066 0.54493c-30.09-7.0384-16.829 48.264-29.327 20.74-25.034 35.457 15.84 50.034 21.24 15.578 8.9833-5.978 4.4206-33.871 17.919-13.036 0.25995-6.9264-0.1988-23.217-9.8315-23.281zm-78.863 0.85742 6.4883 1.418zm9.7617 0.0703 2.3828 0.23242zm-438.07 0.0586c-5.9758 7.4625-5.9758 7.4625 0 0zm413.09 0.24415c19.848-1.1671-36.88 5.3174 0 0zm-144.6 1.5781c-10.281 11.287-18.144 20.151 0 0zm-208.94 0.31055 0.64258 6.4609zm-341.64 0.26562c-5.3369 13.885 37.576 40.012 2.1005 16.683-15.436 47.44 51.617-4.6599 4.1902-14.084zm713.92 2.0488c15.233 4.5653 23.855 7.9365 0 0zm-369.34 1.4805-0.11914 1.791zm-74.973 0.43359c3.1057 0.60376 3.1057 0.60376 0 0zm334.92 0.2793c3.1304 0.72717 12.966 1.1397 0 0zm-327.63 0.42578c-0.57714 1.4041-0.91303 2.0153 0 0zm6.8652 0.59961-2.2031 1.2812zm0.125 2.2168 0.25781 0.44726zm314.38 0.0937c-5.3841 3.113-10.617 4.5771 0 0zm-309.18 0.26172-1.0293 0.36914zm-31.398 0.32226c-10.27-0.0892-3.4656 0.78471 0 0zm165.03 0.0195 0.74023 7.502zm-186.97 0.0703 4.457 0.8418zm43.352 1.793c-21.225 0.98367-31.505 1.5049 0 0zm258.15 0.90039c-4.9071 4.9666-11.074 8.5227-2.0586 2.0957zm17.029 0.14063c-29.904 10.808-2.9301 13.738 5.5319 3.6655l-3.7506-3.1343zm-524.15 0.57812c-18.955 19.152 45.031 49.939 18.195 14.159-9.0439-1.1855-8.8898-14.715-18.195-14.159zm506.93 3.0703c0.0992 0.77912 0.0992 0.77912 0 0zm-452.54 0.7539c-7.797 5.0174 23.586 3.6598 0 0zm420.04 0.89844 8.3203 1.3613zm-409.13 0.0195c0.98174 18.876 23.9 3.6481 0 0zm722.85 1.2031c-17.499 20.081 6.8758 40.775 4.6856 7.252-1.1746 15.098 5.1154 35.981 3.9047 5.2287l-3.8051-5.3556zm-1.2109 29.623c-3.643 1.7211 6.5172 6.7106 0 0zm-0.83593 0.8711c-11.799-15.116-10.617 6.7691-17.648-16.905-24.035 0.0184-48.581 66.431-26.444 61.098 11.942-17.975 24.486-35.331 44.092-44.193zm-588.1-30.234c-26.136 8.3734 17.435 37.15-7.9564 24.272 16.902 33.859 33.495-12.057 57.502 2.9352 20.7-48.653-11.264-0.57613-5.0269-19.962-13.163-6.3247-29.907-5.8084-44.519-7.2453zm298.91 0.0117c-6.963 0.87585-20.984 1.0299 0 0zm220 0.0449c-33.08 22.904 15.375 22.254 0 0zm-577.05 0.86524c4.9755 17.299 54.552 25.625 15.928 4.3203-5.268-1.5563-10.433-3.6479-15.928-4.3203zm515.49 0.0488-7.0957 3.3594zm-195.98 0.82617-0.54297 0.5957zm-1.3047 0.98828-1.127 0.1582zm-13.271 0.76562c5.1801 3.2893 7.7252 4.47 0 0zm128.55 0.15039c-20.273 3.4369-15.103 28.553 3.2637 1.9375l0.0498-1.5212zm-15.66 14.908c18.506-32.656-47.897 4.477-65.535-3.3937-23.236 1.7805-62.253 51.256-49.897 60.741 36.18-19.324 61.044-33.125 97.41-47.408 21.062-9.1685-28.564 22.333 4.9091 4.8436 9.0695-4.334 2.0182-10.284 13.113-14.783zm81.014-11.439-2.7949 0.0391zm-304.6 0.62891c-0.75886 19.882-0.75886 19.882 0 0zm358 0.41016-3.2754 1.5859zm-243.75 0.31054 1.1719 0.29102zm4.2637 0.45313c-3.6982 0.3482 1.0355-0.13778 0 0zm-464.37 0.0137 0.14843 0.0937zm281.42 0.73242c-16.84 11.293-4.5065 16.645-19.953 40.244 8.5495-5.4239 22.556-28.634 19.953-40.244zm-148.54 1.0508c-35.74-4.0073-82.278 43.065-70.861 73.742 41.218-9.1466 86.918-4.3898 119.71 26.784 16.988 8.7718 92.001 32.54 67.713-3.8638-38.943-14.308-49.408-69.215-94.718-66.55-11.488-17.297-62.676-28.32-15.007-17.163 6.9821 18.749 67.895 24.907 26.896 5.0006-11.268-5.6914-21.3-15.001-33.734-17.95zm571.79 0.49024c-4.7337 3.9507-4.7337 3.9507 0 0zm-699.06 1.9844c-17.707 11.023 34.073 21.625 3.3093 2.3091zm529.1 0.41016-0.78906 0.9668zm-0.95703 1.3242c0.40432 0.72905 0.40432 0.72905 0 0zm-80.609 2.5059c7.8819 8.7416-0.87586-0.14685 0 0zm-259.84 0.7207c-12.362 8.7738 17.801 28.133 2.9073 1.5232zm315.9 2.1973-8.2949 0.74804zm203.33 0.043c-26.689 22.595 18.675 17.753 0 0zm16.531 0.0488c-14.902 2.4889 8.9631 26.049-6.3438 2.5137-16.857 14.383-6.2871 32.201-0.45877 41.954-29.199-42.402-42.331 36.519-58.531 34.945 18.663-12.113 27.668-53.2-3.277-26.254-34.737 17.102 17.386 86.579 28.795 41.697 26.668-19.791 63.178-32.776 50.754-73.112-9.1687-4.4106-7.1173-14.936-10.938-21.743zm-93.275 0.17188c22.452 7.0425 27.156 11.486 1.8574 8e-3 -5.5647-0.0944-14.495 1.7349-1.8574-8e-3zm-137.84 0.86719-1.8477 0.39648zm-2.3359 0.81054 0.3418 0.21485zm122 1.2344-2.0078 0.4707zm-89.711 3.1836c3.8756 1.5076 3.8756 1.5076 0 0zm81.496 0.22266c-10.916 8.1686-22.536 18.874 0 0zm-344.98 0.375c-12.161 0.74244-53.353 4.4236-24.793 19.672 15.9 6.4936 23.02-5.569 24.793-19.672zm227.62 0.0391c-5.7973 0.85082-13.055 3.792 0 0zm-449.31 0.64844c-42.842 15.593 49.977 14.168 16.68 0.46741-4.8726 6.9854-10.249-3.8383-16.68-0.46741zm57.916 0.27734c0.58803 4.296-0.37728 6.1275 0 0zm408.92 0.45313c0.98702 0.34869 0.33056 0.0912 0 0zm12.018 0.0586c6.3608 0.63514 8.9541 1.4851 0 0zm-3.9512 0.37109c-2.4459 0.86832-4.0845 1.551 0 0zm-422.96 0.39649-2.8789 1.9316zm416.9 1.2305c-7.6626 13.289-12.49 19.984 0 0zm-96.418 0.37109c-0.50097 16.453-0.13233 32.144-0.21596 6.468zm99.172 0.41602-0.72461 1.6211zm-449.39 1.2539-0.29492 0.20117zm139.88 1.7324c-10.569 24.671 38.481 30.535 14.834 8.3379-4.6136-3.1814-9.0498-7.4109-14.834-8.3379zm594.85 0.20704c-25.394 11.428-49.137 40.239-45.967 70.107 25.293-14.182 53.105-39.729 45.967-70.107zm-70.166 0.34179c2.2992 8.0962 3.2974 10.431 0 0zm-242.7 0.25196c-10.451 4.8848-21.14 10.482 0 0zm105.28 2.9453-3.6582 3.5898zm135.86 0.41992 2.7285 6.0586zm-189.61 0.17773c-18.314 4.0674-56.991 30.922-14.666 14.881 3.2433-3.27 19.636-9.3267 14.666-14.881zm53.969 3.3301c-11.056 12.199-11.056 12.199 0 0zm-119.85 0.43555c-7.858 5.2908-1.3521 1.0416 0 0zm36.484 2.2676-0.4336 0.50976zm-9.6133 1.3906 0.26757 0.14063zm0 0-4.248 1.877zm83.186 0.23242c-21.152 12.144-31.954 17.965 0 0zm-82.699 0.12696 0.34961 0.57422zm5.5566 1.3828 0.49415 0.0977zm0 0-0.68945 0.0742zm78.725 6e-3 0.0566 0.33008zm75.746 0.38281-1.7441 2.5254zm-76.141 0.6543c-3.1891 1.4988-3.891 2.0398 0 0zm-349.81 0.50976c-33.456 22.134 16.639 30.461 22.756 13.158 13.211-16.469-15.828-8.9746-22.756-13.158zm298.75 2.6465c-17.962 9.2769-12.212 19.177 0 0zm44.4 2.8574-1.793 1.4551zm-91.283 0.0352-6.7188 2.5664zm-141.77 0.11132-0.29883 0.55469zm230.15 2.3047c-3.3996 3.483-3.3996 3.483 0 0zm-564.21 0.21875c-13.654 3.2564-79.394 25.269-37.056 37.411 18.475 16.03 59.334 27.023 58.833 29.74-27.162-28.741-7.3804-6.5815 10.705 1.6822 13.868-12.393-11.05-26.234-1.6637-37.242-10.547-14.538-28.415-16.105 0.89612-10.966 14.986-18.214-21.302-19.38-31.715-20.625zm173.96 0.68555c7.6296 6.8351 7.6296 6.8351 0 0zm160.52 1.4668c0.50583 3.4786 1.5054 6.6149 0 0zm-149.8 2.3203 0.99023 3.1738zm-195.44 0.76953 0.48633 0.35547zm506.55 0.24805c-25.45 5.1967-24.063 11.818-48.531 15.697-0.93194 28.049 58.099-3.6184 48.531-15.697zm-508.12 0.99218c10.79 4.1149 11.366 4.4115 0 0zm465.71 0.81419c-6.2648 3.9102-12.496 8.9485 0 0zm100.27 0.26562c-3.9355 1.5676-3.9355 1.5676 0 0zm-554.64 1.2012c10.352 3.9274 22.05 3.0069 4.291 1.6562l-2.1504-0.76562zm34.414 0.4961c-4.0335 5.0902-22.33 1.2863-8.1992 2.9824 2.8775-0.51776 5.6051-1.6629 8.1992-2.9824zm515.4 0.74023-4.4688 0.13086zm-571.24 0.0664c6.6448 2.6534 6.6448 2.6534 0 0zm616.57 0.39453c24.872 3.3337 29.103 3.636 0 0zm-151.73 0.99023 0.95703 0.27539zm144.2 1.4688c-3.605 1.5784-3.605 1.5784 0 0zm-571.46 0.0488c-3.3114 1.1716-3.3114 1.1716 0 0zm542.68 0.13086-3.5606 0.99805zm40.906 0.37699 5.2852 3.0723zm-616.98 0.58594c-8.0952 3.1072-10.928 4.5028 0 0zm-11.869 0.57032c2.3952 0.34232 1.2654 0.28204 0 0zm0 0c-8.4628 3.0084-10.633 4.8862-0.78125 0.0703zm653.86 0.46484c-0.44373 0.0321-5.4146 0.42814 0 0zm-651.69 0.20898 0.7207 0.66992zm647.13 0.57422-1.3613 0.55274zm-93.82 0.9043c-14.963 7.7638-26.822 13.32 0 0zm66.156 0.0508c17.157 8.1601 12.938 2.7994-2.9414 0.1347-16.253 2.8736-1.6559-0.28034 2.9414-0.1347zm-629.18 1.6699 0.86523 0.11914zm364.87 4.0156c1.0219 13.824 1.0219 13.824 0 0zm-138.48 0.35937c0.11899 0.13923 0.11899 0.13923 0 0zm6.1758 0.0723 1.7559 1.4629zm-149.96 2e-3c-6.858 25.922 20.965 43.301 5.6555 8.6691-3.0617-1.8522-2.6108-6.8646-5.6555-8.6691zm154.37 0.0683 0.67968 1.0801zm192.66 1.0566-1.0215 4.0137zm196.32 0.38672c-9.3464 1.5615-14.613 1.4726-1.6836 0.4043zm-263.58 0.70508 0.29101 6.8906zm-223.02 0.1289c-27.754-9.3082-50.663 20.689-36.117 32.721-0.80389-18.199 5.9518-21.514 5.1719-1.9609 14.304 1.4578 51.065-17.677 26.107-12.169 6.7493-5.4472 27.964-20.058 4.8386-18.591zm187.24 0.0625c-16.392 15.663-41.751 45.306-29.199 64.893 3.6954-1.1476-6.6425 7.1035 10.938 8.0601-3.1274-17.151 18.321-20.423 16.454-44.068 0.81194-9.5479 3.857-19.297 1.8071-28.885zm298.8 1.1914c-9.1395 4.264-10.965 4.864 0 0zm144.67 1.3301c-21.281 8.0188-48.518 25.035-48.181 48.998 11.176-9.7187 55.165-39.661 40.367-30.72-10.552 29.322 18.727-4.2344 7.8145-18.278zm-142.4 0.40234-4.0938 3.0879zm-383.33 0.99024 0.0137 0.72851zm-255.94 0.41992 3.4961 1.3887zm240.42 4e-3 0.55469 0.16602zm-64.379 1.3633c-9.1529 8.4634 24.096 2.6336 0 0zm70.086 2.2402c29.559 2.4978-24.434-1.0512 0 0zm426.47 0.0957c-14.209 4.0483 21.504 39.947-4.4142 9.0945-15.822-23.637-59.75 12.965-27.525 21.042-15.833-21.046-96.242 8.4822-46.704 16.011 27.735-18.365 71.094-9.6592 94.63-19.382-8.3178-6.5244-3.8982-25.331-15.986-26.766zm-596.72 0.61719-0.12305 0.26953zm184.14 1.9746c8.0449 4.8081 15.074 9.1398 0 0zm85.891 0.0176c-16.071 19.582 15.895 71.723 3.4406 20.658-1.1601-6.8838-2.3118-13.769-3.4406-20.658zm453.51 0.73242-1.0566 0.84961zm-721.19 0.0879c1.5219 2.4155 3.6512 4.2441 0 0zm253.34 0.38477 0.13282 0.19726zm-330.11 0.6914c-2.9723 13.018 33.274 45.814 0 0zm175.23 0.0586c-59.737 8.0991 62.636 36.716 11.125 3.541l-5.696-2.6404zm408.04 2.1602c-20.335 7.3339-51.426 7.6162-13.885 4.1191l6.5527-1.8008zm36.498 0.33203c-7.7381 4.3819-7.7381 4.3819 0 0zm-607.18 1.5098c-17.175 19.074 45.373 52.78 11.793 21.683 29.614 27.411 16.939-9.6359-2.6186-17.036l-7.3564-4.2072zm461.09 3.0721c-2.0018 14.926 13.774 57.724 8.7695 17.117-14.296 27.447 43.553 30.688 18.17 29.896-1.2546 6.7924-25.819 1.216 2.3766 5.0051 33.567-0.44651 15.642 10.896-5.3068 1.4819-37.017-2.3147-0.51403 24.497 23.535 17.349-17.65 6.0359-60.957 14.085-37.647 3.4569-12.349 4.5739-65.015 10.206-24.617-0.51557-19.734 5.1199-74.17-6.4261-75.293 4.0072 27.794 2.0981 78.646 1.8447 29.892 5.2405 13.321 4.1046-12.266 9.0182-24.221 12.168-14.44 3.956-84.441-3.8477-27.568-3.2135 17.724-1.0474 74.988-7.0569 24.13-8.6024-23.256-10.215-63.555 11.376-44.124-5.8646-48.565-10.711 45.98-2.4928 1.3866-8.9846-17.152-5.194-58.884-9.466-15.05-7.9419 26.618-4.9089 34.141-2.856 7.0902-13.494 24.775-3.7174-17.14-4.8964 0.0438 6.9452-31.503 3.8234-43.408 8.7384-74.128 6.5389 7.3291 10.238 31.172-2.5349 2.1602 4.623 21.18 44.398-48.354 28.077-73.276 33.279-30.979-1.0047-23.998 4.033-12.667 19.366-35.452 21.411-81.251 12.163-120.31 6.9555-62.849-6.9114 14.257-36.297 10.733-38.396 5.2824-6.9533 23.59 8.1348 1.5043-3.999 19.162-34.41-68.971-19.979-12.302-21.699 37.843-9.9202-19.732-17.234-35.744-15.482-8.42-14.005-39.641-24.086-45.756-10.04 19.968 1.6062 43.78 7.8361 8.3442 9.6454-55.812 10.093 23.952 8.0758 26.562 22.821-20.812-2.0309-46.639 11.808-11.544 14.087 23.046 0.85274 46.727 6.089 10.595 10.31 4.2094 8.0222 49.16 6.8658 11.42 14.888-33.94 7.8763 42.68 22.437-1.2269 21.215-37.446 5.4119 78.439 13.339 46.191 20.142-21.336-2.3986-75.505 6.3039-22.743 12.31 24.948 8.4388 92.683-1.8541 93.829 20.871-20.131 4.9032-74.341-8.3749-75.389 7.7784 41.28 10.826 86.698 4.7745 127.02 14.447-19.777 5.7392-87.86 7.5681-34.951 12.709 25.081 3.9344 65.165 0.92483 82.183 8.3891-15.213 2.6723-95.869-2.709-45.647 5.6834 28.95 4.5453 75.408-2.2064 93.255 10.063-20.983 4.1252-99.003 0.65938-39.773 8.1328 48.319 7.176 98.639-0.15403 146.11 5.5044-22.131 13.501 48.895 7.0187 61.275 9.074 69.664-3.8454-76.636-6.7055-7.6374-13.034 49.395-4.4201 100.28-0.27025 148.67-10.98-16.729-6.6081-94.562-7.9268-34.514-11.892 51.207-3.0267 104.71 2.2338 153.96-13.511-6.5051-9.5585-81.147-13.521-30.268-24.805 21.282-6.0484 66.222-3.8354 73.654-13.368-18.577-0.19618-50.159-9.0446-12.234-10.221 23.889-5.1268 65.323-1.7433 79.046-15.646-29.163 7.0759-42.057-13.745-12.263-21.047 15.899-4.4596-43.171-14.714 0.51383-14.049 20.841 0.83045 47.035-8.8006 9.7708-9.9248-20.645 1.4332-46.999-14.274-10.141-18.679 25.25-0.19891 47.217-19.032 8.7992-17.157-25.538 0.37945-41.153-4.5288-6.5495-6.1032 17.217 0.2053 32.73-8.0738 6.4194-11.613 17.305-1.4786 75.093-10.603 28.523-15.062-19.257-1.3175-55.787-5.2697-15.666-5.5304 13.707-8.0182-48.495-11.171-54.571 6.9425-57.308 11.485 29.599 41.077-1.1263 75.327 41.442 28.843-37.298 39.729-57.519 46.308-37.817 12.637-77.16 22.853-118.93 14.437-42.188-1.8173-82.791-10.97-125.36-13.223-23.242 7.9481-45.866-29.096-11.153-7.2586 52.051 11.084 105.39 0.15539 157.94 6.6016 46.832-0.6045 94.003-7.6708 138.89-20.864 19.084 1.5034 31.13-26.246 12.738-15.875 24.589-1.1495-32.226 23.993-52.557 23.238-56.274 13.194-113.87 10.39-171.04 8.5235-27.494-0.85334-126.37 12.859-83.039-36.474 28.124-18.519 67.925-48.017 88.785-59.631 30.335-2.7488-23.821-10.858-35.725-20.728-16.903-8.6444-20.565-34.31-44.71-37.969zm-258.12 1.5879c7.5461 3.081 10.945 3.618 0 0zm377.73 1.1621-4.5684 1.1387zm-46.496 0.17188 0.25391 0.31445zm-8.4492 0.0898-0.60351 0.0703zm-334.5 0.15625c-13.266 36.807 89.524 44.301 55.822 20.641-19.349-5.948-40.181-6.441-55.822-20.641zm335.79 0.15235 1.8418 0.88476zm-211.18 0.0254c-3.858 12.575-5.338 16.706 0 0zm283.94 0.15625-1.8027 0.85156zm-575.75 0.25586c11.092 3.4728 4.5529 1.5844 0 0zm0 0 0.49805 0.75195zm572.55 0.19336 0.35156 0.3164zm-236.42 0.0293-0.0801 0.75586zm5.6562 0.71094c-10.164 24.083 12.559 43.014 2.2678 13.547-1.28-3.9805 1.1701-10.762-2.2678-13.547zm-145.68 1.0586c7.3766 3.7177 10.547 5.2512 0 0zm140.37 1.7539 0.37305 0.21289zm-52.725 0.38086-0.19141 1.1016zm210.71 2.8008c9.8692 3.4111 9.8692 3.4111 0 0zm-211.44 0.0254c-1.6681 3.9113-1.6681 3.9113 0 0zm254.65 0.96875c-17.618 2.4443-40.004 4.2134 0 0zm-281.49 2.6524-1.4844 1.293zm-34.318 0.1289c7.6507 2.4492 15.012 4.6082 0 0zm-0.56836 0.0742-2.5547 0.63672zm-101.27 1.0664c-20.912 3.0461-100.53 29.168-69.758 40.127 9.0138-5.875-19.724 8.1251 2.5352 8.2324-12.549 0.47834-20.35-16.525-13.803 1.1074-3.0344 16.469 33.743-0.54295 25.193-13.594-1.6335 3.1512-1.4762-7.238 1.9473-6.416 12.021-15.545 45.602-4.013 10.32-4.3457 1.2694 0.0393-13.346 17.608-0.74805 22.342-9.145-3.82 9.9823 12.645 27.102 15.232 28.393 8.5559 43.933-41.748 30.658-4.2845-31.94 27.188 39.683 5.4432 56.342 11.589 9.207-19.458 18.097-3.2505 32.424-13.025 7.5058-0.52685-37.729-37.496-61.682-44.403-12.518-6.6397-26.097-12.515-40.531-12.562zm135.71 0.21875c1.5071 0.19531 1.911 0.81255 0 0zm34.219 0.48633c0.30821 0.53538 0.57972 0.71545 0 0zm0 0-0.22266 0.27929zm-49.125 0.88867c0.77954 4.0178 4.1059-3.5907 0 0zm11.912 0.63867c-8.7607 5.7932-17.719 10.455 0 0zm37.793 0.47851-1.2402 4.957zm-57.615 1.6914c7.3979 1.0385 7.3979 1.0385 0 0zm-218.38 0.52344c-4.4889 25.248 58.947 3.0116 14.089 5.6866l-6.9348-2.8272zm415.06 0.35742c-3.6017 22.747 4.1565 30.993 0 0zm79.148 4.4023c3.4347 19.887 53.326 14.026 10.625 5.2344 12.103-3.5038-8.9359-4.5063-10.625-5.2344zm-257.54 2.8984c-17.146 1.472-43.704 23.498-10.774 12.202 2.0838 1.3861 18.855-8.2067 10.774-12.202zm375.12 1.0859c-42.38-3.2768-77.856 18.663-112.39 38.821-32.319 23.886-76.866 39.07-95.3 78.103 21.637-12.432 58.563 9.2317 82.151-6.3475 17.193-19.115-45.578-9.0922-8.8334-14.12 20.469 8.667 6.4134-30.686 16.521-14.559 22.422-21.194-17.116 9.6773 4.3555 16.971-21.714 25.43 58.663 0.59476 49.658 13.564 30.756 20.233 50.28-21.944 10.388-32.013-27.711-32.672 29.606 29.944 46.18 5.015 29.151-2.04-24.161-17.809 13.759-7.3389 20.024 5.1736-7.6952-38.628 16.576-8.1302 25.714 12.146 25.715-29.096 40.011-20.838 19.569-26.47-67.222-46.722-19.699-35.938 36.382 2.6121 23.465 70.236 63.289 53.439 7.9641-32.674-46.285-64.075-78.429-64.873-9.3563-1.2414-18.799-1.8306-28.237-1.7574zm-341.03 1.7266c1.9262 3.6958 0.23396 0.46 0 0zm4.6816 0.0586-0.60156 0.48437zm-7.1309 0.13085c-0.0839 1.7541-0.0839 1.7541 0 0zm5.9668 1.2402c-0.10985 1.4343-0.10985 1.4343 0 0zm144.83 0.53906c-3.1557 8.3072 6.0972 8.024 0 0zm-313.94 7.2774 0.85938 0.54687zm349.19 0.62304-2.082 0.0859zm-384.72 0.16016c2.2578 2.2281 2.7573 3.4816 0 0zm186.34 0.0254c0.0991-0.13298-3.3417 0.49335 0 0zm-150.98 0.75976-2.5957 0.39649zm516.04 0.0469c11.838 12.104 11.838 12.104 0 0zm-162.13 0.28516c0.13773 2.8139 0.13773 2.8139 0 0zm-361.62 0.73046-3.4805 0.47461zm152.97 1.6738c-8.548 19.223-77.278 5.8059-28.356 13.97 6.0716 1.5242 34.754-4.7357 28.356-13.97zm-200.75 0.64844-4.8906 3.1309zm412.15 0.20899 0.82617 0.67773zm21.424 0.1914 0.72461 0.82227zm-22.209 1.1191c0.32025 0.16134 0.32025 0.16134 0 0zm-318.23 0.0664 4.1758 2.1367zm-217.27 0.60938 0.58594 0.6836zm757.65 0.56641 4.4023 2.9238c4.1436-1.5495-24.327 9.3543-4.4023-2.9238zm-424.39 0.49414c2.1316 1.0473 2.1316 1.0473 0 0zm225.88 0.36914c1.3796 1.3919 3.1608 2.761 0 0zm-65.637 0.51953c-16.383 5.1864 19.535 3.3809 0 0zm-492.25 0.5957c4.7445 5.232 5.9748 5.7088 0 0zm251.41 2.9648 3.4316 1.8476zm-29.729 0.27539 1.1953 0.17187zm345.09 0.0937c6.4307 1.6305 6.4307 1.6305 0 0zm164.3 0.97266c-7.0283 0.64159-7.0283 0.64159 0 0zm-257.62 0.81445c-14.236 7.9395 29.305 1.5896 0 0zm250.3 0.0566-0.59765 0.041zm-605.61 0.31055-0.82813 1.1445zm460.37 0.29101 3.4375 0.47656zm-428.66 0.40235-1.2012 0.58203zm108.83 0.17382 4.4726 1.3125zm137.62 0.40235c-21.621 5.7905 32.925 5.2737 7.7076 0.59079zm337.24 0.1289c-0.6962 0.13906-1.2914 0.4918 0 0zm-714.79 0.0508c3.2277-0.91557-5.9772 2.2415 0 0zm715.57 0.14649 0.44531 0.22266zm7.6113 0.90625c4.3448 11.521 6.1883 15.13 0 0zm-298.65 0.51953c-27.757 6.9147 34.064 7.201 0 0zm-329.56 0.0644-0.55078 0.84571zm593.17 0.23633c-4.4913 3.0976-4.4913 3.0976 0 0zm-218.17 1.9902c-40.627 3.2096-5.4949 6.9067 13.202 3.6591-3.7757-2.8588-8.7816-2.6435-13.202-3.6591zm-341.5 0.7832-0.87695 0.9043zm234.54 0.36523c-35.868 0.40245 17.498 7.0927 0 0zm-57.615 0.3711 0.25782 0.1289zm1.7227 1.2539 0.29297 0.33594zm100.53 0.0937c-3.7246 4.4815 6.1196 2.5268 0 0zm-247.74 0.0312c-6.8301 1.1074-12.086 1.8967 0 0zm147.33 0.54688c-2.3697 0.0366-2.3697 0.0366 0 0zm-80.705 0.29883-0.27734 1.4785zm9.1074 0.61328c-11.904 1.5389-11.904 1.5389 0 0zm142.38 0.6914c-24.264 5.6353 4.2122 7.7361 0 0zm91.254 0.21094c11.042 12.333 26.28 2.8786 0 0zm-139.13 0.125c4.6443 1.3611-3.0769-0.59258 0 0zm-115.08 0.0117c-3.3232 2.1026-6.1128 3.7073 0 0zm-120.84 0.23438-1.1719 0.37109zm151.87 0.67578 1.127 0.0976zm-22.344 0.38086c-2.4897 0.81063-0.5923 0.21412 0 0zm5.2617 0.13281c0.31082 0.24862 0.31082 0.24862 0 0zm68.072 0.10547-3.3106 0.13281zm-39.404 0.37304c-1.64 0.76611-2.3408 0.80448 0 0zm182.35 0.16602c-29.125-1.1256-11.017 7.1869 6.8207 0.73641zm-220.01 1.2852-1.168 1.1445zm3.7559 0.67382c-3.712 4.8082-5.8653 7.3297 0 0zm24.24 0.91602c1.8666 1.6639 1.8666 1.6639 0 0zm-3.1602 1.4297c1.5104 0.91821 1.5104 0.91821 0 0zm-127.28 0.68359c-24.046 3.3845 18.607 3.9205 6.3086 13.018 21.68 4.2473 59.414-10.527 15.076-4.0781-7.1932-2.8154-13.702-7.3816-21.385-8.9394zm129.23 0.87305 0.0801 0.20508zm-22.828 0.9043-0.53907 0.38476zm48.229 7.4941c15.878 5.0457 19.935 6.0471 0 0zm272.12 0.17382c-15.136 7.1477-17.045 7.9937 0 0zm78.248 1.125c-11.943 8.0165-11.943 8.0165 0 0zm-523.55 1.9941c-17.525 4.7038-76.193 23.657-32.012 22.824 12.513 7.3467 42.708 3.3023 47.932 4.8067-32.982-6.783 66.413 4.0191 43.972-0.69586 48.397 2.6693-48.8-29.416-59.892-26.935zm176.79 0.76563 1.1035 1.0508zm330.16 0.35742-7.2246 2.584zm-75.533 0.33008c0.12539 9e-3 -0.12552 0.0158 0 0zm-2.4746 0.52344-3.9668 1.8867zm-250.62 0.375c0.86858 4.6482 0.94082 5.915 0 0zm-199.33 0.63696c-4.1008 2.3679 4.6378 0.39109 0 0zm206.97 0.15625c18.374 9.7222-29.656 22.443 2.1192 9.793 4.4469-2.2538 2.7706-9.4898-2.1192-9.793zm476.4 0.68164-0.47265 0.62304zm-85.893 0.54296c-9.9938 8.7865-15.413 12.379 0 0zm-87.391 1.9219c-13.333 0.24261-13.333 0.24261 0 0zm-306.77 1.0918c-3.7e-4 4.2865-0.0328 1.5564 0 0zm-4.2402 0.90039c1.185 1.3865 1.9992 2.1069 0 0zm1.627 1.3828 0.43359 0.0352zm286.06 1.0801c-3.6757 1.9365-3.6757 1.9365 0 0zm-198.76 0.89648 9.1445 0.59961zm294.57 0.0488 2.4238 0.23633zm-382.23 0.10156c0.74214 0.16648 2.3811 0.72649 0 0zm-1.7168 0.23633-0.46679 0.1836zm377.76 0.6582-3.1465 2.6328zm-92.449 0.19532 0.75 0.35156zm7.1348 0.35547-4.8711 0.15234zm-302.24 1.043c-3.2823 2.49-3.2823 2.49 0 0zm-169.12 0.65235c5.9326 1.1154 5.9326 1.1154 0 0zm176.4 0.0566c-8.7647 2.2941-8.7647 2.2941 0 0zm-123.09 0.28125c-2.696 5.1091-1.2277 2.2572 0 0zm-89.855 0.35742c-6.8822 1.5499-15.12 1.2303-3.3106 0.70313zm493.91 0.69336c-3.375 2.7379-9.9877 6.5271 0 0zm-437.85 0.1582 2.7422 0.13867zm-53.174 0.23438c3.892 0.36017 3.892 0.36017 0 0zm478.21 0.0371c-31.11 6.5714-43.543 8.6982 0 0zm106.73 0.16992-2.4102 1.3301zm-509.96 0.64453c8.5204 1.6336 10.37 1.9268 0 0zm460.18 0.7832-1.2246 0.47071zm-442.02 0.0547 0.89453 1.2148zm485.76 1.666c1.477 0.60753 1.477 0.60753 0 0zm0 0-2.3457 1.2578zm-501.18 0.11523 1.1367 0.26758zm16.873 0.0723c1.8879 1.7477 4.0727 3.4291 0 0zm589.58 0.20898c-41.66 8.711 9.1922 34.581 9.1349 5.5779l-3.291-3.8942zm-669.23 0.15234-0.8457 0.84376zm177.32 0.46876-0.32227 0.10546zm8.7891 0.34374c-3.1745 1.2821-6.0508 3.943-1.5469 0.65626l0.71289-0.31641zm325.8 0.54883-1.1914 1.043zm-54.896 0.84571c-2.3745 2.3781-3.4467 4.3412 0 0zm-377.44 1.2969 0.45312 0.0937zm-116.51 1.9707c22.973 18.507 68.581 9.7598 100.36 12.275 20.653 2.9167 53.925-14.154 15.598-3.2032-37.949-0.079-80.28 5.6426-115.96-9.0723zm593.38 1.7617 1.334 0.63672zm-64.168 2.9316c-14.067 3.1405-41.501 8.2644 0 0zm32.227 0.19727 1.6016 0.0606zm-1.918 0.58398c-0.2554 0.95154-0.2554 0.95154 0 0zm-111.92 0.3711-2.6465 1.416zm-5.5938 2.2598c-8.7544 15.592 35.13-4.1244 3.8594 5.9708-5.3398 1.8344-8.169-1.7593-3.8594-5.9708zm67.27 1.5312 1.0684 0.58008zm196.96 0.27149c-4.8391 2.5667-5.2328 2.735 0 0zm-223.94 0.29687c4.0359 1.959 12.835 3.3704 0 0zm-4.8516 0.44141c3.5487 1.1307 2.3226 0.73188 0 0zm86.129 0.17773 1.6387 1.2812zm-88.99 0.61133c-6.7332 3.3299-8.3595 4.0602 0 0zm42.236 0.15234-0.18164 0.16602zm0.23828 0.0703 0.30469 0.35547zm-50.629 0.15625c-15.646 4.0546-28.651 7.865 0 0zm49.992 0.8164-0.0684 1.3086zm231.95 2.5352c-10.597 5.7816-1.7984 12.631 0 0zm-146.78 1.4961c0.98202 18.291 19.801 6.446 0 0zm-161.74 0.31446 3.0938 0.41015zm15.734 0.15429c-6.0474 1.5046-7.7868 1.7247 0 0zm-22.127 2.9707c27.325 3.99-2.4807 6.7792 0 0zm-5.8691 0.59961-1.0996 2.9922zm51.635 0.32421-2.2227 0.47266zm-12.535 0.3379c1.6744 0.63722 3.371 1.1186 0 0zm-14.898 0.60937c3.3568 0.38531 3.3568 0.38531 0 0zm7.7715 1.9023 3.3164 1.3027zm6.375 0.0996 0.44336 0.58594zm1.1816 2.3262c-0.0443 0.72477-0.0443 0.72477 0 0zm-63.105 0.81836c-2.3117 0.6786-7.1093 2.391 0 0zm162.79 1.9355c-6.1276 0.4337-6.1276 0.4337 0 0zm31.646 0.76953c-25.471 3.4242 1.6677 11.179 0 0zm-170.18 0.92188c-0.50584 0.80476-0.50584 0.80476 0 0zm-19.887 12.148 0.11328 0.0352zm-0.47461 1.5254 0.17187 0.11718z" fill="#558ba7"/></svg>
