<?xml version="1.0" encoding="UTF-8"?>
<svg clip-rule="evenodd" fill-rule="evenodd" stroke-linejoin="round" stroke-miterlimit="2" version="1.1" viewBox="0 0 1024 1024" xml:space="preserve" xmlns="http://www.w3.org/2000/svg"><path d="m249.14 94.17c-9.1267 12.567 17.237 42.653 11.928 53.33 12.457-32.941-13.082-18.437-11.928-53.33zm493.13 17.084c1.895 4.5331-1.7305 10.079-0.32617 14.586 1.7786-5.1827 2.2309-10.284 0.32617-14.586zm-0.32617 14.586c-6.766 19.716-33.831 40.656-33.656 23.686 13.293-19.227 12.066-24.988-1.4766-5.834-5.0711-35.466-1.3148 34.75-30.322 20.654-4.1337 11.966-31.811 7.9546-43.236 17.486-16.749 34.445-93.663 27.827-91.596 45.113 34.542-17.126 59.764 32.102 93.551 5.8516 29.418 19.398 61.902 30.58 95.287 24.154-31.983 3.7115 16.933-38.792-12.119-15.832-3.6322 28.487-74.601 4.8801-33.012-1.5215-38.835 9.3905-22.626-24.544 6.4141-17.314 17.894-6.4879 91.029 8.6605 37.99-6.5996 12.833-13.706 55.619-25.869 12.867-14.766-16.684 23.835-76.833 18.583-29.266-6.6934-23.619 12.578-56.091 35.924-91.674 35.883-26.069 15.296-44.846-19.859-7.707-22.852 16.284-2.6357 46.247-4.768 50.494-20.783-15.089 21.149-52.052 10.807-15.672-2.8398 28.139-22.134 52.08-2.5985 77.811 3.4746-39.551-9.8876-6.9518-17.059 13.609-15.898 14.219-15.021-58.218 11.728-36.779-8.8516 13.895-11.283 88.062-11.255 38.562-15.58 20.676-14.412 12.167-10.526-3.8789-2.7715 7.6367-14.633 37.562-38.758 5.1211-15.77-0.67749-0.74984-1.0523-1.5614-1.3125-2.3965zm-107.9-13.805c-4.3853 14.705-69.809 45.752-41.668 39.465 14.379-9.7564 41.014-21.974 41.668-39.465zm-143.61 1.1133c-26.524 9.8966-65.689 46-69.045 61.176 21.416-25.069 46.465-44.171 69.045-61.176zm90.475 21.334c-0.0302 0.12715 0.0279 0.46458 0.082 0.79102l-60.637 77.369c-23.36 6.1755-46.464 13.448-68.701 23.34v-0.01c-5.465-8.5954-20.111-35.772-24.191-44.92-1.378 5.321-0.12223 17.586 1.8242 23.127 4.399 9.0647 8.1266 22.565 13.664 25.482l-15.484 8.459c0.85851-1.6118 1.5372-4.1639 1.2812-7.9062-3.7247 5.1112-4.3812 8.1776-3.8848 9.3145-4.2821 2.4582-8.5193 5.0444-12.707 7.7754-19.495 13.579-50.96 45.396-55-1.9883 3.0081-30.156-15.626-37.865-36.525-44.062 0 0 0.55193-3.6106 0-5.9024s-3.752-7.3379-3.752-7.3379c-2.1557 3.5996-0.17555 7.0382 0.62695 7.7012s0 4.5469 0 4.5469c-20.942-6.0518-43.213-11.587-47.939-37.061-22.081-48.335 1.0331 40.18 24.062 41.682 35.499 4.8038 62.416 20.565 56.941 60.203 13.726 16.594 39.795 42.546 7.1602 14.07-0.4019-0.28849-0.74361-0.67803-1.1211-1.0078 9.8447 15.318 19.965 30.435 24.275 49.016 3.5399-19.645-21.298-46.387 6.252-17.314-4.4732-15.947-31.769-47.115-4.6172-18.955 13.307 25.322 28.461-33.118 59.258-36.52 9.9456-15.252 58.723-40.788 17.045-18.859-15.584 15.981-43.609 26.321-58.67 30.771 36.664-19.737 73.296-48.822 117.71-51.451 24.346-26.873 65.653-81.82 63.133-89.527 0.1176 0.47325 0.0972 0.49686 0.11133 1.0742zm-224.3 153.67c-2.5773-4.0103-5.1081-8.0509-7.5391-12.154 1.8705 5.0138 4.275 9.3027 7.5391 12.154zm-7.5391-12.154c-6.0768-16.288-6.86-39.588-15.594-41.49 1.9607 15.804 8.1984 29.007 15.594 41.49zm-134.39-153.64c-11.018 27.382 66.645 48.811 14.357 25.332-10.621-6.3555-5.9556-17.359-14.357-25.332zm194.57 15.014c14.022 34.383 18.324 25.408 0 0zm6.8477 22.512c-4.9434 19.408-4.1673 44.839 1.4043 11.627l-0.50781-5.9004zm-201.75 26.711c2.552 5.4048 77.45 20.51 31.379 5.3867-10.386-2.3241-21.798 0.35637-31.379-5.3867zm324.27 23.742c-5.9426 17.412-56.824 30.426-16.947 19.104 6.4709-4.4915 16.858-10.033 16.947-19.104zm-247.34 14.188c-34.054 5.0936-64.363 18.216-96.793 10.037 33.21 13.39 72.265-3.1554 96.793-10.037zm208.44 50.773c-17.089-0.25495-57.881 7.3221-23.348 6.6602s95.102 17.071 47.395-2.8906c0 0-6.9579-3.5146-24.047-3.7695zm-84.316 1.0547c-2.8412 2.436-19.885 17.121-22.207 18.117-2.3222 0.99666 7.8196-12.526 11.986-15.301 4.1668-2.7753 10.221-2.8164 10.221-2.8164zm-71.83 1.2031c3.9932 17.767 26.947 46.957 7.1992 12.992l-3.9785-7.4375zm-8.9551 8.0312c-0.77089 50.898-57.524 56.02-85.234 90.389-33.577 14.441-61.909 31.813-89.818 52.014-11.942 9.4502-40.786 47.503-25.932 49.625 3.6693-2.6334 8.1423-5.0453 12.957-7.3594-14.042 13.187 1.6982 44.03 15.869 11.232 1.6787-4.5985 11.752-17.543-0.18164-16.572-1.7134-9.7e-4 -3.1798 0.23701-4.6582 0.46094 28.401-11.463 64.555-20.468 72.078-35.865 16.718-18.182 28.74-14.755 5.0547 5.1543 22.981-12.164 54.428-43.909 78.76-63.287-3.1972 20.213-34.348 45.625-38.82 59.111 9.2708-13.119 22.659-1.2543 23.412-7.3828 16.726-34.582 7.4546 48.379 15.02 5.4492-7.6034-16.198 8.3606-57.384 25.398-72.68-16.659 16.665-14.998 63.066-7.4336 16.576 31.463-24.386 32.59-58.958 5.5527-85.365zm503.02 31.25c-45.836 10.93-87.692 33.376-123.98 62.91-45.007 42.987 87.431-22.734 31.104 7.6894-41.309-0.74562-29.854 68.204 5.791 41.293 43.674-12.949 38.186-76.531 91.334-77.387 18.43-25.016 70.62 27.63 34.266-12.084-11.942-8.4765-25.147-16.443-38.516-22.422zm-474 8.7559c1.8246 20.943-53.562 67.542-11.912 29.895 6.2044-7.6198 17.621-19.265 11.912-29.895zm-68.875 20.232c-7.7475 3.8985-19.027 12.46-4.9394 2.6992zm-67.434 0.18164c-3.2439 21.336 26.676 47.833 6.9453 11.688-2.3027-3.842-4.4934-8.0991-6.9453-11.688zm-23.008 0.54883c8.8504 17.484 48.015 51.61 15.783 14.092-5.1216-4.6886-9.1599-11.229-15.783-14.092zm656.72 2.1289c-46.702 8.0382 3.7676 44.137 9.6133 5.168l-4.3984-3.9453zm-32.061 4.6211-2.6523 0.90234zm-581.31 1.2383c-3.5295 23.829 6.8287 19.5 0 0zm577.23 0.20898-1.4766 0.62109zm52.9 3.0664c-40.438 25.528 43.345 23.762 0 0zm-49.797 5.7207c-7.1438 7.413-39.204 3.6472-24.645 28.463 26.213 16.417 62.035-34.627 20.734-13.445-9.3768 6.6253 6.5012-10.224 3.9102-15.018zm-12.418 4.7812-0.57031 0.27344zm50.568 6.1445c-1.2815-0.24225-2.7718-0.21375-4.4648 0.18359-24.509 5.3161-31.022 32.461-1.1914 9.9121 13.378 6.4969 14.627-8.3999 5.6562-10.096zm-679.56 5.4024c19.302 16.982 46.012 12.85 0 0zm25.715 3.7637c-9.0842 1.9479 20.31 8.986 0 0zm-30.48 2.2324c10.306 12.174 37.692 6.6843 0 0zm611.2 9.8418c-16.554 13.424-12.69 38.829 0 0zm8.6016 0.11523c-13.289 22.098 8.9059 3.8779 0 0zm80.84 1.1113c-47.873 3.0261-93.456 17.999-132.68 45.975-44.215 14.413-85.303 36.381-122.91 63.668-26.985 36.762-14.048 45.022-10.838 47.725 13.999 5.8497 142.7-38.569 165.98-63.559 39.306-19.495 69.291-47.973 111.15-62.049 40.698-8.5278 16.722-25.844-10.699-31.76zm-181.42 2.4941c-1.1576-0.12951-2.3905-0.0819-3.6856 0.17187-43.966 1.414-91.009 19.018-116.38 56.758-2.9763 6.8759 0 0-7.9004 14.184 20.109 40.265 74.107-7.6629 103.47-19.775 13.05-3.7091 27.095-15.487 33.449-23.945 0.35463-0.13982 0.39698-0.17809 1.6797-0.60938 0.29544-0.57734 0.14628-0.75322 0.29883-1.2031-0.57539 0.68682-1.0826 1.206-1.7715 1.5703 1.007-1.3608 1.638-2.5363 2.1973-3.668 0.0151 0.0248 0.0644 0.0514 0.0781 0.0762-0.013-0.0667 0.0629-0.21525 0.043-0.27539 1.4372-3.0127 1.2404-5.0763-1.6191-5.0723 2.7233-7.7529-1.7544-17.304-9.8574-18.211zm11.434 23.559c0.0859 0.43981-0.24754 1.2654-0.5039 2.0215 0.52355-0.62495 0.92824-1.2556 0.5039-2.0215zm-324.13-21.771c-16.232-4.1384-30.634 9.0854-20.861 22.322s37.106 25.046 52.176 23.613 39.553 0.75509 28.246-10.254c0 0-43.328-31.543-59.561-35.682zm-51.074 21.297c-3.9877 2.2385-6.6689 5.3841-5.8125 13.962s31.603 35.007 52.174 41.51 66.922-10.36 30.713-25.078-61.508-26.371-64.904-28.514-8.1822-4.1189-12.17-1.8804zm373.87-0.80911c0.0891 0.0548 0.0873 0.10742 0.16797 0.16211-0.1247-0.0221-0.22823-0.066-0.36719-0.0723 0.12753-0.0651 0.0687-0.0229 0.19922-0.0898zm205.44 4.875c-11.183 20.376-5.141 24.791-10.766 2.4277-29.648 14.552 5.3383 62.069 7.0293 13.381-0.28309-4.43 7.2437-12.71 3.7363-15.809zm-23.094 4.7773c-16.734 5.7121-6.9184 61.266-11.498 17.162-8.8672-23.092-15.048 19.869-6.5781 26.283 2.0954 18.998-19.966 4.415-30.791 26.49 15.804 8.1288 46.635-28.052 33.82-26.473 17.32-1.8796 10.102-32.054 15.047-43.463zm-183.04 5.0684c-31.747 6.6546-3.435 20.957 0.72461 0.26758zm-387.1 22.174c4.2725 9.375 22.85 14.391 9.4238-8.2617 0 0-3.182-4.3834-6.248-4.5-4.3805-0.16662-7.4483 3.3868-3.1758 12.762zm360.11-5.793c-30.358-1.1861-26.218 31.395-2.8672 7.7461l3.6602-7.084zm168.03 1.1484c-38.535 13.193-21.549 35.497-2.7422 33.752-7.0349 4.5059-2.5442 7.6283 7.1855-1.8144 4.8678-2.2447 9.3849-6.4587 12.553-13.309-1.7782-43.559-49.684 27.41-16.996-18.629zm-656.12 1.3125c-20.852 3.1762-39.977 42.919-8.8594 23.43 10.893-5.7495 16.384-12.554 8.8594-23.43zm374.33 0.27734c-28.674 0.15229-3.7432 19.859 0 0zm-14.445 0.57032c-16.117 21.963 2.5206 16.569 0 0zm-8.1308 2.1523c-18.268 6.4049-17.428 41.96-2.9258 7.9238-3.9416 1.1246 7.5501-7.238 2.9258-7.9238zm-80.131 0.73047c-5.3258 0.0318-24.082 21.824-24.66 46.301-2.6294 65.956 1.0164 132.4 0.0332 198.41 19.386 25.556 17.933-51.565 17.131-66.227-0.64397-50.598-1.4154-126.66 0.0137-151.89 1.429-25.225 7.4824-26.592 7.4824-26.592zm63.381 0.45508c-17.349 9.2856-16.684 39.637-2.7852 13.066-11.796 62.952 2.2358 127.04-7.166 190.33-0.20535 19.356-4.687 96.634-6.2969 34.9-4.4052-60.031 12.99-70.472-0.30664-185.74-3.2309-28.008-1.6582-38.002-1.6582-38.002s-15.029 28.282-17.309 60.381l5.9512 201.12c-0.53022 26.595 20.858-30.674 21.137 6.0566 1.0378 47.734 17.194-35.82 28.158 3.582 7.8217-40.454 7.8816-87.217 1.123-127.15-21.895 12.162-1.8127 68.284-12.424 79.771-0.57081-55.653-3.2-112.14-1.5781-168.27-0.44634-31.455-10.423-18.903-11.98 6.5234-1.8388-17.2 4.9272-60.304 8.2559-70.902 0.0483-0.0861 0.0782-0.18809 0.125-0.27735 0.4186-1.2502 0.79792-2.123 1.0684-2.1211-0.32909 0.44605-0.16263 0.29936-0.42383 0.66797 0.59158-1.9877 0.15488-4.0262-3.8906-3.9356zm-42.24 0.125c-2e-3 1e-3 -4e-3 6e-3 -6e-3 8e-3 2e-3 -3.2e-4 4e-3 -2e-3 6e-3 -2e-3zm-6e-3 8e-3c-12.451 11.251-7.906 13.881-12.539 28.336-4.6331 14.454-4.4231 82.778-5.6816 124.59l10.701 81.873c3.6625-12.729-0.75933-90.671 4.7793-32.76 0.91596 17.709 1.9007 68.762 5.4883 71.631 7.71-52.383-15.631-104.84-4.6074-157.37l14.547-100.82c0.14075-18.871-0.60497-10.706-12.688-15.477zm165.12 10.789c-0.8036-0.16256-1.7059-0.17727-2.6973 8e-3 -22.996 7.0022-17.665 24.632 1.2285 7.8106 7.8519 1.7224 7.0939-6.6804 1.4688-7.8184zm-218.93 5.5332c-8.4333 14.826-1.5467 21.022-8.7773 2.9629-52.246 18.83 25.14 33.469 8.7773-2.9629zm-248.14 5.3164c-7.8436 7.3639-39.584 8.19-22.498 24.439 10.305 18.982 27.154-12.634 22.498-24.439zm20.217 0.11328c-16.38 21.094 16.073 76.142 10.742 27.205-4.0207-25.813-6.5545-18.405-8.1465-3.5859-1.6582-7.5504 0.9664-16.893-2.5957-23.619zm338.13 1.5274c-9.7283 14.623-7.4151 63.46-1.8945 19.676-0.44818-5.4967 4.9254-15.255 1.8945-19.676zm263.05 0.86718c-27.017-2.3919-42.206 40.906-47.688 55.463-19.554 33.385 14.876 15.497 25.385 0.4336 10.309-14.033 50.677-44.127 38.412-48.398zm-676.34 0.44141c-17.592 16.869 18.94 55.408 22.732 18.188-15.385 19.844 2.0508-9.518-18.191-12.625-1.0196-2.6001-2.3787-4.0112-4.541-5.5625zm445.5 1.3633c-4.6273 16.555 15.768 14.213 0 0zm34.227 4e-3c-16.696-0.31829-30.798 13.388-17.934 20.779 0.0971-9.6367 31.361-15.635 25.178-19.727-2.42-0.67721-4.859-1.0073-7.2441-1.0527zm-56.145 3.5781c-3.2893 33.188-10.192 74.843-2.1055 104.42-5.0879-34.3 5.6591-72.62 2.1055-104.42zm-88.332-13.396c-0.34187-0.0274-2.5977 16.115-2.5977 16.115-4.2287 19.194 5.2729 26.273 4.5859 8.9141-0.34347-8.6795-1.6464-25.002-1.9883-25.029zm153.94 17.572c-33.13 6.9688-17.488 31.076 0.47851 2.7891l0.35938-1.918zm220.62 14.955c-6.6368 20.715-42.639 34.162-47.588 48.1 18.956-9.4931 44.97-26.756 47.588-48.1zm-680.77 0.37305c-29.922 24.54 41.446 9.461 0 0zm64.971 3.002c-22.801 36.938 45.501 36.066 13.104 4.1621-16.35-8.5778-15.671 30.168-13.104-4.1621zm602.71 2.8379c-17.372 0.59123-68.442 53.38-26.551 26.889 6.9242-11.03 30.405-10.841 26.551-26.889zm-72.99 2.7168c-21.495 6.7792-52.429 9.4285-40.871 24.688-11.057-6.5555-18.706-2.926 2.1426 11.916 9.5416 15.057 38.817 22.342 34.266-4.1152-23.036 17.56 28.358-28.527 4.4648-32.486zm-500.59 7.7285c3.9246 16.374 35.986 55.648 7.082 23.133-33.288-33.836-9.2289 55.382 23.871 29.727 12.425-17.135-15.665-45.51-30.953-52.859zm-66.721 6.209c-35.714 8.8076-81.173 12.252-99.693 49.227 32.992-16.77 77.769-6.2858 110.36 13.451 42.159 39.127 79.578-7.6921 30.473-40.57-13.707-7.016-24.67-21.762-41.139-22.107zm276.74 3.9219c-3.245 59.002 4.1682 118.43-4.125 176.38-10.475 16.678-9.5565 55.189-0.61719 19.002 16.108-9.3971 7.9086-71.173 7.6992-101.48-0.81606-31.39 3.0032-62.781-2.957-93.902zm408.92 5.7224c-17.831 3.0061-106.87 41.92-109.87 51.479-41.035 16.826-68.334 52.368-100.56 81.084-25.962 11.266-72.556 56.827-15.311 56.084 44.928 3.5 77.263-31.714 118.78-40.117 43.286-12.225 64.426-49.84 87.559-83.822 27.902-8.4476 92.485-58.55 31.748-62.236-4.0611-1.8096-8.0103-2.2657-12.35-2.4707zm-184.96 2.5781c-39.013 15.81 73.147 41.134 22.398 13.672-7.8558-3.8532-14.162-10.587-22.398-13.672zm92.574 10.334c-8.3188 10.402-53.964 18.448-15.582 15.797 4.01-0.0143 26.028-13.137 15.582-15.797zm135.82 3.4297c3.8664 17.147-1.9703 87.784 8.7422 43.414 2.7675-14.546-4.1071-29.82-8.7422-43.414zm-285.75 4.6445c-32.595-0.25416-77.084 29.815-53.053 49.938 19.302 11.665 92.812 6.576 84.264-31.818-51.138-18.36 54.663 11.299 19.998 7.2422-29.1-1.9393-3.4586 30.508 7.3125 4.7109 39.66 5.7924-23.035-2.3972 7.3379 12.994 31.075 8.6888 33.629-20.54 2.4512-23.668-18.371-17.48-55.737-19.3-68.311-19.398zm285.24 5.2891c-10.55 22.478 5.3663 42.008 0 0zm-796.76 8.7402c-44.041 1.9736 36.438 41.029 28.582 5.543-10.273 3.349-18.596-5.2891-28.582-5.543zm177.73 5.0469c-2.8587 4.7078-3.2478 9.656-2.2793 14.424-1.1894-2.5892-2.9569-5.5906-5.9024-9.3516l-2.9258-3.9297c-26.34 15.2 11.346 32.5 10.441 18.432 9.0327 21.031 43.266 34.34 21.301-4.6934-8.0074-15.136-14.356-13.953-14.021-5.3242l-3.498-7.7539zm-24.568 2.8789c-21.75 5.307 6.2361 24.647 0 0zm-111.26 0.0625c-21.941 4.986-16.582 19.075-3.3008 31.295-7.3148-2.5769-7.8745-14.137-16.535-13.619-18.6 18.793 42.453 48.631 19.396 15.939 13.84 11.576 33.823 20.789 42.639 17.391 21.017-22.87-17.69-27.762-26.584-16.365 0.857-15.641 47.121-14.865 9.3965-26.74-15.064-3.7982 6.9726 21.122-12.506-1.3242-3.6644-3.9353-7.5522-5.1196-12.506-6.5762zm734.14 2.002c-23.382 0.17544-12.459 47.167-24.176 21.363-25.034 35.457 15.84 50.034 21.24 15.578 8.9833-5.978 4.4196-33.87 17.918-13.035 0.25995-6.9264-0.19741-23.217-9.8301-23.281h-2e-3c-1.8806-0.4399-3.5916-0.6367-5.1504-0.625zm-795.94 0.0606v2e-3c14.159 29.761-19.589-17.679-2 13.785 10.149 16.553 11.178 33.348 11.852 2.334-0.39415-6.4817-3.3162-13.664-9.8516-16.121zm11.824 3.9492c-5.3369 13.885 37.577 40.011 2.1016 16.682-15.436 47.44 51.616-4.6599 4.1895-14.084zm554.28 11.086c-29.904 10.808-2.9307 13.737 5.5312 3.6641-1.7266-1.6409-3.2869-2.9972-5.5312-3.6641zm-469.76 4.4024c-7.797 5.0174 23.586 3.6598 0 0zm10.91 0.91601c0.98174 18.876 23.9 3.6481 0 0zm132.7 1.4648c-26.136 8.3734 17.434 37.149-7.957 24.271 16.902 33.859 33.495-12.057 57.502 2.9356 20.7-48.653-11.264-0.57708-5.0273-19.963-13.163-6.3247-29.906-5.8073-44.518-7.2441zm518.91 0.0566c-33.08 22.904 15.375 22.254 0 0zm-577.05 0.86523c4.9755 17.299 54.552 25.625 15.928 4.3203-5.268-1.5563-10.433-3.6479-15.928-4.3203zm433.48 2.7793c-20.273 3.4369-15.103 28.553 3.2637 1.9375l0.0508-1.5215zm-19.107 1.2344c-14.787-0.17057-49.962 15.69-62.088 10.279-23.236 1.7805-62.252 51.255-49.896 60.74 36.18-19.324 61.044-33.125 97.41-47.408 21.062-9.1685-28.565 22.333 4.9082 4.8438 9.0695-4.334 2.0185-10.284 13.113-14.783 5.7818-10.204 3.2736-13.594-3.4473-13.672zm-284.57 4.7832c-16.84 11.293-4.5067 16.645-19.953 40.244 8.5495-5.4239 22.556-28.634 19.953-40.244zm-155.35 0.88086c-34.52 1.9819-74.754 45.153-64.051 73.912 41.218-9.1466 86.919-4.3905 119.71 26.783 16.988 8.7718 92.001 32.54 67.713-3.8633-38.943-14.308-49.409-69.216-94.719-66.551-11.488-17.297-62.675-28.319-15.006-17.162 6.9821 18.749 67.895 24.906 26.896 5-11.268-5.6914-21.3-15-33.734-17.949-2.2338-0.25046-4.5092-0.30205-6.8106-0.16992zm-120.46 2.6445c-17.707 11.023 34.072 21.624 3.3086 2.3086zm774.6 0.084c-23.981 0.0184-48.45 66.103-26.574 61.105-8.3896 12.395-11.16 24.302 0.0644 30.488 25.851 14.246 53.105-39.73 45.967-70.107-1.826 0.82173-3.9307 2.1456-5.9394 3.2852 1.7067-2.4159 3.188-4.9715 4.1309-7.8672 6.2989-19.346-10.617 6.7697-17.648-16.904zm-586.91 4.877c-12.362 8.7738 17.802 28.133 2.9082 1.5234zm525.5 0.45508c-1.0667-0.36265-3.006 0.0654-6.2656 1.7852-13.038 6.8791-2.6642 18.095 2.8867 12.428-4.9611 11.968 2.294 24.478 6.8418 32.088-29.199-42.402-42.331 36.519-58.531 34.945 18.663-12.113 27.668-53.2-3.2773-26.254-34.737 17.102 17.386 86.579 28.795 41.697 26.668-19.791 57.761-57.336 50.754-73.111-7.0073-15.775-6.4895-22.112-10.938-21.744-5.9442 0.26739-9.0574 4.4665-12.088 9.3125 0.37383-1.8481 5.0223-10.059 1.8223-11.146zm-454.38 8.6992c-12.161 0.74244-53.353 4.4235-24.793 19.672 15.9 6.4936 23.02-5.5689 24.793-19.672zm-219.33 0.0254c-0.77199 0.0403-1.5594 0.24075-2.3633 0.66211-42.842 15.593 49.977 14.167 16.68 0.4668-4.2635 6.1122-8.9124-1.4109-14.316-1.1289zm159.72 7.2227c-10.569 24.671 38.481 30.535 14.834 8.3379-4.6136-3.1814-9.0498-7.4109-14.834-8.3379zm333.52 4.3438c-18.314 4.0674-56.991 30.922-14.666 14.881 3.2433-3.27 19.636-9.3266 14.666-14.881zm-304.45 10.719c-33.456 22.134 16.639 30.461 22.756 13.158 13.211-16.469-15.828-8.9748-22.756-13.158zm298.75 2.6465c-17.962 9.2769-12.212 19.177 0 0zm-522.71 5.5274c-13.654 3.2564-79.395 25.268-37.057 37.41 18.475 16.03 59.335 27.023 58.834 29.74-27.162-28.741-7.3803-6.5801 10.705 1.6836 13.868-12.393-11.05-26.234-1.6641-37.242-10.547-14.538-28.415-16.106 0.89648-10.967 14.986-18.214-21.302-19.38-31.715-20.625zm495.79 5.4902c-25.45 5.1967-24.063 11.818-48.531 15.697-0.93194 28.049 58.099-3.6187 48.531-15.697zm-450.83 17.465c-6.858 25.922 20.964 43.3 5.6543 8.668-3.0617-1.8522-2.6096-6.8635-5.6543-8.668zm46.633 0.58594c-22.779-0.32961-38.728 23.952-26 34.48-0.80389-18.199 5.9518-21.514 5.1719-1.9609 14.304 1.4578 51.065-17.678 26.107-12.17 6.7493-5.4472 27.963-20.057 4.8379-18.59-3.4692-1.1635-6.863-1.7127-10.117-1.7598zm197.36 1.8223c-16.392 15.663-33.329 55.587-29.199 64.893 4.1296 9.3051 5.9192 7.919 10.938 8.0605 5.0183 0.14158 17.139-30.991 16.453-44.068 0.81194-9.5479 3.8585-19.297 1.8086-28.885zm443.47 2.5215c-21.281 8.0188-48.517 25.035-48.18 48.998 7.9692-6.93 31.981-23.708 40.107-29.773-9.2836 27.128 18.829-5.3836 8.0742-19.225zm-109.07 5.5156c-6.7658 1.9276-2.2152 10.985 1.6133 16.711-1.4646-1.9364-1.9698-2.7872-6.0274-7.6172-13.201-19.722-45.811 2.4553-37.586 15.047-25.914-7.0844-79.207 15.537-36.643 22.006 27.735-18.365 71.093-9.6581 94.629-19.381-8.3178-6.5244-3.8986-25.331-15.986-26.766zm-326.69 2.6094c-16.071 19.582 15.896 71.723 3.4414 20.658-1.1601-6.8838-2.3126-13.769-3.4414-20.658zm-267.68 0.82031c1.5219 2.4155 3.6512 4.2441 0 0zm-76.77 1.0762c-2.055 9.0004 14.609 27.42 14.111 22.812 10.341 14.553 33.836 24.755 10.27 2.9316 29.614 27.411 16.938-9.637-2.6191-17.037l-7.3555-4.207-1.8184-0.43946c-2.9299 3.2538-3.4212 6.9373-2.584 10.648-2.2327-3.6178-5.276-8.1993-10.004-14.709zm175.23 0.0586c-59.737 8.0991 62.636 36.716 11.125 3.541-3.5242-2.1995-7.1295-2.8782-11.125-3.541zm298.45 7.0742c-1.5059 11.229 0.79546 27.802 9.2383 33.58s30.082 9.6383 17.701 13.432c-38.973-6.1037-5.9271 2.7887-2.9297 6.4883-37.017-2.3147-0.51381 24.498 23.535 17.35-17.65 6.0359-60.958 14.083-37.648 3.4551-12.349 4.5739-65.015 10.206-24.617-0.51563-19.734 5.1199-74.17-6.4255-75.293 4.0078 27.794 2.0981 78.646 1.8444 29.893 5.2402 13.321 4.1046-12.266 9.0182-24.221 12.168-14.44 3.956-84.441-3.8471-27.568-3.2129 17.724-1.0474 74.989-7.0561 24.131-8.6016-23.256-10.215-63.556 11.375-44.125-5.8652-48.565-10.711 45.98-2.4926 1.3867-8.9844-17.152-5.194-58.883-9.4655-15.049-7.9414 26.618-4.9089 34.141-2.8562 7.0898-13.494 24.775-3.7174-17.141-4.8963 0.043 6.9453-31.503 3.8234-43.407 8.7366-74.127 6.5371 1.5852 2.2144 3.968 3.219 6.3965 3.7148-1.4094 0.30087-2.4369 0.46423-4.2363 0.90821 21.18 44.398-48.355 28.077-73.277 33.279-30.979-1.0047-23.997 4.0342-12.666 19.367-35.452 21.411-81.252 12.163-120.31 6.9551-62.849-6.9114 14.256-36.297 10.732-38.396 1.5935-2.0975 4.1977-2.042 6.6953-1.4805-1.6308-0.76633-2.2728-0.91519-5.1895-2.5176 7.5818-13.615-1.6378-19.447-12.035-21.795 37.081-9.8695-20.053-17.133-36.012-15.387-8.42-14.005-39.641-24.085-45.756-10.039 19.968 1.6062 43.779 7.8352 8.3438 9.6445-55.812 10.093 23.953 8.0751 26.563 22.82-20.812-2.0309-46.64 11.809-11.545 14.088 23.046 0.85274 46.728 6.0896 10.596 10.311 4.2094 8.0222 49.16 6.8646 11.42 14.887-33.94 7.8763 42.68 22.437-1.2266 21.215-37.446 5.4119 78.439 13.34 46.191 20.143-21.336-2.3986-75.506 6.3045-22.744 12.311 24.948 8.4388 92.684-1.8539 93.83 20.871-20.131 4.9032-74.341-8.3759-75.389 7.7773 41.28 10.826 86.698 4.7748 127.02 14.447-19.777 5.7392-87.86 7.5681-34.951 12.709 25.081 3.9344 65.166 0.92443 82.184 8.3887-15.213 2.6723-95.87-2.7088-45.648 5.6836 28.95 4.5453 75.409-2.2069 93.256 10.062-20.983 4.1252-99.003 0.65942-39.773 8.1328 48.319 7.176 98.639-0.15257 146.11 5.5059-22.131 13.501 48.895 7.0189 61.275 9.0742 69.664-3.8454-76.635-6.7067-7.6367-13.035 49.395-4.4201 100.28-0.27075 148.67-10.98-16.729-6.6081-94.561-7.9254-34.514-11.891 51.207-3.0267 104.71 2.233 153.96-13.512-6.5051-9.5585-81.146-13.521-30.268-24.805 21.282-6.0484 66.222-3.8346 73.654-13.367-18.577-0.19618-50.159-9.0462-12.234-10.223 23.889-5.1268 65.324-1.7419 79.047-15.645-29.163 7.0759-42.058-13.745-12.264-21.047 15.899-4.4596-43.171-14.716 0.51367-14.051 20.841 0.83045 47.036-8.7996 9.7715-9.9238-20.645 1.4332-46.999-14.275-10.141-18.68 25.25-0.19891 47.217-19.031 8.7988-17.156-25.538 0.37945-41.154-4.5291-6.5508-6.1035 17.217 0.2053 32.73-8.0741 6.4199-11.613 17.305-1.4786 75.093-10.604 28.523-15.062-19.257-1.3175-55.787-5.2686-15.666-5.5293 13.707-8.0182-48.494-11.172-54.57 6.9414-57.308 11.485 29.598 41.078-1.127 75.328 41.442 28.843-37.299 39.73-57.52 46.309-37.817 12.637-77.16 22.852-118.93 14.436-42.188-1.8173-82.79-10.97-125.36-13.223-23.242 7.9481-45.867-29.095-11.154-7.2578 52.051 11.084 105.39 0.15536 157.94 6.6016 46.832-0.6045 94.002-7.6721 138.89-20.865 19.084 1.5034 31.13-26.246 12.738-15.875 24.589-1.1495-32.226 23.993-52.557 23.238-56.274 13.194-113.87 10.39-171.04 8.5234-20.282-0.62951-79.255 6.5904-91.482-9.3438 21.816-10.601 57.519 9.601 80.549-5.6094 7.9608-8.8508-17.792-24.711 7.6875-28.68 24.646-3.839-17.116 9.677 4.3555 16.971-21.714 25.43 58.663 0.59527 49.658 13.564 30.756 20.233 50.281-21.943 10.389-32.012-27.711-32.672 29.606 29.943 46.18 5.0137 29.151-2.04-24.16-17.808 13.76-7.3379 20.024 5.1736-7.695-38.629 16.576-8.1309 25.714 12.146 25.714-29.096 40.01-20.838 19.569-26.47-67.222-46.721-19.699-35.938 36.382 2.6121 23.465 70.236 63.289 53.439 7.9641-32.674-46.284-64.075-78.428-64.873-9.3563-1.2414-18.8-1.831-28.238-1.7578v2e-3c-42.38-3.2768-77.855 18.662-112.39 38.82-31.867 23.552-75.572 38.691-94.461 76.525-3.5276-5.664-1.568-14.022 9.207-26.289 28.124-18.519 67.923-48.017 88.783-59.631 30.335-2.7488-23.821-10.859-35.725-20.729-16.902-8.6441-20.564-34.309-44.707-37.969zm-269.84 3.168c-13.266 36.807 89.524 44.301 55.822 20.641-19.349-5.948-40.181-6.4407-55.822-20.641zm174.59 1.5234c-10.164 24.083 12.561 43.014 2.2695 13.547-1.28-3.9805 1.1683-10.762-2.2695-13.547zm-221.76 10.91c-20.783 3.028-99.42 28.827-70.211 39.904-2.604 1.488-6.427 4.1801-5.5234 6.2559-7.0559-3.7624-10.161-9.8085-5.291 3.3066-3.0344 16.469 33.743-0.54276 25.193-13.594-1.6335 3.1512-1.4762-7.238 1.9473-6.416 12.021-15.545 45.602-4.013 10.32-4.3457 1.2694 0.0393-13.346 17.608-0.74805 22.342-9.145-3.82 9.9819 12.645 27.102 15.232 28.393 8.5559 43.933-41.749 30.658-4.2852-31.94 27.188 39.683 5.444 56.342 11.59 9.207-19.458 18.097-3.2509 32.424-13.025 7.5058-0.52685-37.729-37.497-61.682-44.404-12.517-6.6394-26.096-12.513-40.529-12.561zm135.71 0.21875c1.5071 0.19531 1.911 0.81255 0 0zm-241.2 4.707c-4.4889 25.248 58.946 3.0106 14.088 5.6856l-6.9336-2.8262zm494.21 4.7598c3.4347 19.887 53.326 14.026 10.625 5.2344 12.103-3.5038-8.9359-4.5063-10.625-5.2344zm-257.54 2.8984c-17.146 1.472-43.705 23.497-10.775 12.201 2.0838 1.3861 18.856-8.2059 10.775-12.201zm13.588 16.363c-8.548 19.223-77.279 5.8046-28.357 13.969 6.0716 1.5242 34.755-4.7345 28.357-13.969zm432.76 3.4102 4.4023 2.9238c4.1436-1.5495-24.327 9.3542-4.4023-2.9238zm-264.15 1.3828c-16.383 5.1864 19.535 3.3809 0 0zm-18.799 5.7168c-14.236 7.9395 29.305 1.5896 0 0zm-77.15 1.6367c-21.621 5.7905 32.924 5.2728 7.707 0.58984zm46.982 1.752c-27.757 6.9147 34.064 7.201 0 0zm45.439 2.291c-40.627 3.2096-5.4957 6.9058 13.201 3.6582-3.7757-2.8588-8.7808-2.6426-13.201-3.6582zm-106.96 1.1484c-35.868 0.40245 17.498 7.0927 0 0zm15.01 3.9004c-24.264 5.6353 4.2122 7.7361 0 0zm53.209 2.3887c-15.802 0.74881 0.0151 6.4078 15.623 0.76367-5.1837-0.75311-10.394-0.95268-15.623-0.76363zm-313.65 5.0156c-24.046 3.3845 18.607 3.9201 6.3086 13.018 21.68 4.2473 59.414-10.527 15.076-4.0781-7.1932-2.8154-13.702-7.3817-21.385-8.9395zm-18.551 12.564c-10.548 2.8312-35.707 10.785-44.668 16.52-1.1994 0.0868-0.32227 0.15681-0.19922 0.10937-5.7392 3.7394-4.5708 6.5219 12.855 6.1934 12.513 7.3467 42.708 3.3042 47.932 4.8086-32.982-6.783 66.412 4.0177 43.971-0.69727 48.397 2.6693-48.799-29.415-59.891-26.934zm-21.008 2.9883c-4.1008 2.3679 4.6378 0.39109 0 0zm670.22 17.479c-41.66 8.711 9.1921 34.581 9.1348 5.5781l-3.291-3.8945zm-706.17 5.627c22.973 18.507 68.58 9.7602 100.36 12.275 20.653 2.9167 53.925-14.154 15.598-3.2031-37.948-0.079-80.278 5.6414-115.96-9.0723zm748.37 15.166c-10.597 5.7816-1.7984 12.631 0 0z" fill="#558ba7"/></svg>
