<?xml version="1.0" encoding="UTF-8"?>
<svg clip-rule="evenodd" fill-rule="evenodd" stroke-linejoin="round" stroke-miterlimit="2" version="1.1" viewBox="0 0 1024 1024" xml:space="preserve" xmlns="http://www.w3.org/2000/svg"><path d="m249.14 94.17c-4.9521 17.243 21.937 77.513 13.324 31.18-8.6703-8.3045-14.795-18.672-13.324-31.18zm493.13 17.084c-0.72173 13.391 1.4882 25.175 0 0zm-0.32617 14.586c-3.6396 25.548-50.358 42.745-24.331 6.3758-10.835 18.445-10.993-3.8445-14.976 6.142-8.0706 45.829-67.517 25.614-91.053 62.624-14.216 8.2732-76.665 16.824-63.555 23.496 31.864-2.7969 63.664 26.361 92.73 11.858 17.755 15.13 76.514 29.001 81.224 20.059-7.2908-10.143 15.525-35.187-5.0336-10.528-28.07 27.329-46.027-12.843-43.651-4.6136-37.354-31.82 73.029-15.182 70.799-21.171-42.548-3.1152 49.262-33.162-1.4623-19.164-20.717 30.918-65.795 3.9693-33.797-4.2171-33.365 18.526-79.472 47.647-114.7 28.839 2.4281-33.761 58.89-8.2952 70.344-39.067-33.234 28.991-35.61-5.0504-0.24704-11.259 27.997-12.165 75.429 29.123 46.648-0.19887 15.113-2.2749 49.353-9.4612 13.367-6.9971-51.247 10.51 1.0254-21.001 22.254-16.06 30.473-4.5622-22.296-1.5094 7.3393-14.879-39.806 24.134 27.93-38.008-10.589-8.843zm-107.9-13.805c-6.5145 14.495-75.825 52.931-29.183 31.642 11.648-7.7961 27.575-15.977 29.183-31.642zm-143.61 1.1133c-23.548 6.2299-76.829 58.029-64.988 56.544 19.216-21.479 42.006-39.317 64.988-56.544zm90.475 21.334c-19.039 26.384-40.561 52.052-60.555 78.16-35.566 6.092-78.89 45.468-88.16-11.921-20.636-21.62 16.608 41.195 4.1275 42.561-14.785-3.4824-37.852 40.394-71.61 34.244-5.5048-30.582-16.315-61.282-44.082-72.175-7.0077-16.442 1.4199 18.493-18.786 0.14851-26.792 3.9002-49.616-78.848-34.699-23.807 6.5376 47.113 69.565 25.878 81.829 67.939-2.512 21.449 12.101 39.408 23.335 51.672-38.45-46.484 29.497 73.401 4.8447 14.082-10.884-22.213 23.378 22.404 3.5555-9.1866-24.013-39.263 14.79 25.014 24.88-12.794 8.9863-20.484 88.061-62.831 64.874-54.002-15.532 9.599-53.983 36.881-63.436 33.081 38.44-36.266 100.34-32.137 131.32-71.892 14.744-20.583 37.585-44.361 42.557-66.111zm-224.3 153.67c-9.5809-17.574-11.103-14.145 0 0zm-7.5391-12.154c-1.2789-19.898-22.809-61.763-9.8349-19.5 2.7011 6.7729 6.1209 13.234 9.8349 19.5zm-134.39-153.64c-12.647 24.406 58.975 45.86 14.357 25.332-10.062-5.2394-6.4629-18.463-14.357-25.332zm194.57 15.014c6.0252 18.736 18.539 28.683 3.1738 4.5648zm6.8477 22.512c-10.024 38.405 5.3726 28.351 0 0zm-201.75 26.711c15.503 11.406 71.011 14.371 23.442 4.3722-7.9012-0.48329-16.359-0.0787-23.442-4.3722zm324.27 23.742c-9.9749 16.532-49.19 31.18-11.582 15.499 5.246-3.6657 11.439-8.3263 11.582-15.499zm-247.34 14.188c-23.48 7.5644-99.778 16.278-90.503 12.207 30.56 8.5649 61.459-3.6297 90.503-12.207zm208.44 50.773c-15.802-1.6406-57.407 8.7265-16.6 6.7379 18.842 0.86054 86.053 13.672 35.032-4.7576-6.0452-1.3859-12.247-1.8769-18.432-1.9804zm-84.316 1.0547c-13.156 13.83-31.832 24.139-10.221 2.8164l6.6729-2.4489zm-71.83 1.2031c16.048 39.224 19.525 31.057 0 0zm-8.9551 8.0312c-5.5416 52.784-68.334 69.618-103.6 98.82-38.501 21.377-84.946 41.517-101.28 85.887 7.3948 14.893 20.326-10.794 11.965 17.958 18.068 25.318 29.107-33.475 21.323-24.998 32.454-5.6156 61.619-31.329 84.943-43.762-26.999 34.497 45.035-31.145 60.901-44.343 16.394 5.9595-67.399 71.751-10.766 47.958 14.332-28.819 12.886 48.128 13.229-1.697-6.5454-24.444 40.833-93.728 15.521-40.707-4.5461 30.158 9.2761-25.684 22.177-28.163 13.922-22.141 5.1021-51.368-14.414-66.953zm503.02 31.25c-48.51 13.866-103.74 35.74-132.99 76.975 16.25 3.2741 82.444-26.536 32.985-5.7392-42.992 14.038-3.0131 73.205 27.209 33.649 28.075-33.626 53.924-86.212 105.58-74.724 49.049 25.415-13.75-25.542-32.778-30.161zm-474 8.7559c2.3715 18.673-45.735 60.205-11.912 29.895 6.3118-8.0308 17.532-18.664 11.912-29.895zm-68.875 20.232c-21.816 13.36-7.8826 4.235 0 0zm-67.434 0.18164c-5.1366 19.411 25.123 42.506 6.9453 11.688l-3.4167-5.9389zm-23.008 0.54883c6.2511 15.966 45.202 47.221 15.783 14.092-5.1898-4.756-9.0965-11.172-15.783-14.092zm656.72 2.1289c-44.382 3.3465 6.6534 43.327 9.6133 5.168-2.7627-3.1028-5.3836-4.8409-9.6133-5.168zm-613.37 5.8594c-4.8388 23.507 7.2654 17.756 0 0zm630.13 3.2754c-39.723 27.335 41.768 19.039 0 0zm-49.797 5.7207c-28.166-1.9376-38.866 38.925-4.5383 30.309 25.304-6.1981 21.89-31.882-2.3524-14.169 2.2782-5.4035 7.418-9.776 6.8906-16.14zm38.15 10.926c-25.299-2.723-32.827 33.659-5.6562 10.096 9.3777 7.1925 16.936-7.0824 5.6562-10.096zm-679.56 5.4024c13.146 14.526 40.003 11.495 7.7946 2.3042zm25.715 3.7637c-8.6745 3.934 23.417 7.027 0 0zm-30.48 2.2324c12.831 12.291 34.799 5.9396 0 0zm700.64 11.068c-58.077-0.43733-106.63 32.694-157.22 54.864-41.962 22.353-105.32 37.904-115.11 91.413 22.868 28.308 74.581-11.585 106.07-17.066 68.043-24.253 119.53-80.821 189.31-101.02 26.358-11.998-11.275-26.542-23.051-28.189zm-181.42 2.4941c-50.513 0.44592-134.38 18.469-127.97 71.113s81.353-16.321 118.11-26.751c19.161-11.146 32.873-28.349 9.855-44.362zm11.434 23.559-0.5039 2.0215zm-324.13-21.771c-59.647 6.9941 19.269 62.825 49.855 44.964 41.71-2.789-46.953-42.943-49.855-44.964zm-51.074 21.297c-17.867 36.448 68.461 80.244 90.444 41.436-23.248-19.134-62.009-32.885-90.444-41.436zm373.87-0.80911c0.66142 0.33686-0.70197 0.0881 0 0zm190.09 18.902c-7.8979-0.88518-27.644 44.723-40.406 61.904s17.369 20.389 33.525-3.3799c11.247-10.701 14.778-57.638 6.8804-58.524zm-190.79-4.1816c-29.399 2.4127-1.8867 21.635 0 0zm-372.6 105.17c18.744 15.042 86.004 30.172 24.212-25.958-50.644-46.003-80.014-18.852-24.212 25.958zm345.61-88.793c-43.629 4.4617-9.96 33.306 0 0zm168.03 1.1484c-45.684 9.0974-3.3164 60.507 14.383 23.283 13.97-45.949-46.843 13.775-14.383-23.283zm-656.12 1.3125c-27.746 3.0865-31.364 46.268-1.8215 18.873 6.3312-4.0049 6.8417-13.603 1.8215-18.873zm246.08 124.39c0.33881 41.35 1.5333 82.699 0.91895 124.05 29.33 5.8487 13.117-63.705 16.888-86.246 1.4593-51.419 8.3595-155.96 4.5337-154.62s-22.341 116.82-22.341 116.82zm88.927-120.2c-3.9682 7.0667-10.471 219.1-10.471 219.1 0.40978 18.499-5.468 64.428-5.7775 19.202-1.4407-58.4 10.851-116.86 0.8516-175.23-3.6893-24.974 1.0464-67.461-12.272-19.086-4.765 44.892-4.051 83.658-5.0239 126.59 2.0355 37.46 0.34546 76.107 4.8514 112.78 17.648-24.71 18.878-4.1407 22.703 13.926 5.8675-8.6123 19.774-36.065 24.862-11.575 6.1352-38.408 23.891-249.78 9.5128-276.05-16.964 20.505-9.3151 225.62-20.873 223.45-2.1745-59.581-0.6031-119.53-3.3601-178.88 1.4594-32.818-1.0363-61.289-5.0044-54.222zm-42.24 0.125c-0.0209 0.0117 8e-3 0.01 0 0zm-6e-3 8e-3c-13.575 29.689-15.238 127.83-18.221 152.93s18.219 116.37 18.219 116.37c11.964-15.241-10.604-123.9 1.0182-172.93 3.4538-30.221 10.613-60.22 11.447-90.599-0.0254-7.2095 1.1118-35.457-12.464-5.768zm165.12 10.789c-29.406 5.4364-12.101 24.506 4.3195 4.982 3.3508-7.315-3.6346-5.158-4.3195-4.982zm-218.93 5.5332c-0.39962 27.994-29.904-5.0366-26.597 17.957s37.755-0.49122 26.597-17.957zm-248.14 5.3164c-21.644-0.2375-39.24 30.163-9.6233 28.161 7.2333-6.9223 12.149-18.124 9.6233-28.161zm20.217 0.11328c-19.329 23.186 21.909 73.064 9.3031 19.032-4.4511-23.608-8.4707 21.081-7.2912-7.5316l-0.33666-6.0342zm601.18 2.3945c-29.936 0.83489-58.835 58.547-46.269 73.848 18.955-15.496 67.861-46.828 57.813-68.474-3.8482-1.7911-7.6963-3.5822-11.544-5.3733zm-676.34 0.44141c-20.444 17.895 22.48 51.951 22.732 18.188-8.9841 17.016-7.541-16.05-22.732-18.188zm29.043 24.449c-28.594 26.822 39.194 5.3522 0 0zm64.971 3.002c-25.46 31.491 45.913 34.564 13.104 4.1621-14.8-7.0714-15.836 24.126-13.104-4.1621zm602.71 2.8379c-24.993 2.1187-56.38 67.968-14.439 33.541 7.7691-4.5595 17.779-21.632 14.439-33.541zm-72.99 2.7168c-24.068 3.7389-51.023 17.54-49.414 27.558 7.4558 25.918 60.096 23.623 39.509 8.7381 1.2711-7.0615 28.817-30.77 9.9049-36.296zm-500.59 7.7285c8.1454 20.785 29.826 48.788 1.5008 18.173-35.864-0.0553 31.945 73.888 32.008 20.232-4.8132-16.754-18.68-30.065-33.508-38.405zm-66.721 6.209c-31.654 2.6999-98.807 25.741-93.375 46.397 44.525-16.894 89.947 6.746 126.72 29.883 58.602 3.6118 16.437-62.757-16.702-70.984-5.0172-3.0218-10.708-5.2153-16.64-5.2966zm685.65 9.6442c-57.048 17.537-110.5 45.817-157.4 82.171-26.778 37.146-79.713 53.199-95.382 96.066 39.751 31.113 90.992-10.72 130.64-25.428 52.593-5.5837 81.097-68.207 108.36-90.153s94.955-58.431 13.777-62.656zm-184.96 2.5781c-33.136 22.496 74.439 36.367 16.743 10.344-5.4481-3.6414-10.521-8.0067-16.743-10.344zm92.574 10.334c-15.684 9.2009-58.972 39.153-22.737 31.197 1.8026-1.352 32.193-27.665 22.737-31.197zm-149.94 8.0742c-35.833-9.7403-91.012 53.293-30.541 55.286 42.803 15.358 70.557-38.177 54.747-41.874 17.118 5.1345 50.436 11.946 14.354 15.495-2.7167 25.501 53.088-11.027 18.916 6.4504 19.331 29.357 52.254-14.98 10.834-15.959-18.602-16.055-44.797-18.608-68.311-19.398zm-511.52 14.029c-44.802 12.447 56.048 30.688 21.186 6.1254-7.3723-1.117-13.598-5.8961-21.186-6.1254zm177.73 5.0469c-8.831-4.1652-21.603 9.6897-16.453 23.738s28.76 18.052 38.062 16.013-12.778-35.586-21.609-39.751zm-135.83 2.9414c-34.852-0.16904 10.593 50.33-14.627 19.223-28.647 13.453 32.817 38.093 19.632 18.602 14.315 25.889 65.375-7.1023 28.472-9.0453s20.365-3.1965 6.1025-13.891-9.5768 11.512-39.579-14.889zm734.14 2.002c-20.816 5.0789-14.017 34.734-28.122 27.76-17.571 34.555 28.632 33.307 29.878 1.6929 2.248-25.152 23.247 4.6652 9.0329-26.137-2.4595-3.515-7.3222-2.354-10.789-3.3157zm-795.94 0.0606c10.601 20.804-20.509-10.348 1.3955 19.912 10.695 38.173 13.265-18.416-1.3955-19.912zm11.824 3.9492c-1.8506 15.611 29.401 34.619 2.1016 16.682-14.856 49.933 56.599-10.361-2.1016-16.682zm554.28 11.086c-41.856 12.227 19.151 12.372 0 0zm-458.85 5.3184c1.3612 19.134 21.643 1.1937 0 0zm132.7 1.4648c-15.029 4.3172-27.691 39.341-7.6646 50.095s81.53-13.706 60.496-30.916-15.098-12.763-24.331-16.627c-9.4328-1.5186-13.472-6.8687-28.5-2.5515zm356.24 4.9355c-42.482 9.1785-95.539 8.2212-112.67 57.778 4.4082 27.965 59.427-26.934 84.951-28.821 24.536-12.937 5.1666 9.5045 9.0934 3.9357 7.7498-2.2555 37.695-29.032 18.623-32.892zm-439.93 5.6641c-32.575-2.0378-84.755 55.225-56.274 72.363 52.734-15.861 95.583 19.875 140.06 38.655 22.662 16.107 68.109-3.7361 26.196-21.263-31.21-40.315-71.024-61.931-115.71-81.094 17.363-1.3002 69.397 20.279 60.008 6.3579-9.3887-13.921-34.704-14.956-54.275-15.019zm-120.46 2.6445c-14.705 17.949 35.966 14.842 0 0zm774.6 0.084c-41.706 16.255-34.769 65.332-26.51 91.594 47.613 7.5438 48.516-67.357 45.047-82.163-8.3791 2.6205-16.985 1.0418-18.537-9.4305zm-61.41 5.332c-12.853 4.7819-3.9698 23.127-0.22239 39.759s-27.026-19.473-30.455 8.7035c-10.013 20.735-34.966 50.241-9.0672 12.048-2.4665-39.268-55.207 26.986-17.476 43.381 29.675 19.608 61.897-46.374 72.476-55.467s-2.4021-53.207-15.255-48.425zm-673.71 8.7246c-44.558 18.33 57.827 8.831 3.9172 0.91695zm493.24 11.566c-24.295 3.1086-48.717 32.951-10.307 11.957 2.8478-2.6689 14.263-5.9839 10.307-11.957zm-528.41 18.893c-28.01 3.4654-76.531 32.095-24.724 45.874 0 0 51.164-3.7977 53.488-10.03 2.3232-6.2325-24.904-8.4767 2.9511-15.219s-21.711-18.978-31.715-20.625zm495.79 5.4902c-19.799 1.736-74.91 28.721-26.088 24.862 9.5139-4.2513 29.922-11.82 26.088-24.862zm-404.19 18.051c-31.349-4.2941-35.245 48.822-21.42 22.018 1.3282 25.484 43.303-5.5547 33.555-7.0771 21.163-15.175-1.5763-12.511-12.135-14.941zm197.36 1.8223c-16.338 12.397-47.425 78.371-13.477 67.966 11.274-20.545 14.143-44.963 13.477-67.966zm443.47 2.5215c-27.633-2.4067-71.092 70.872-28.185 33.787 13.384-9.9789 19.688-17.455 21.424-5.0745 6.7834-6.9921 12.759-19.474 6.7614-28.713zm-109.07 5.5156c-7.6051 13.465 8.7415 21.449-10.157 3.5615-32.939-9.1254-31.463 33.558-60.221 24.423-38.742 3.3188-16.936 30.984 8.7501 10.387 24.35-12.565 109.37 7.6052 61.628-38.371zm-326.69 2.6094c-17.172 16.004 15.603 67.048 3.4414 20.658-1.1601-6.8839-2.3126-13.769-3.4414-20.658zm-282.24 50.285c20.909-18.861-59.644-38.162-58.041-30.403 1.6031 7.7582 44.91 31.941 58.041 30.403zm113.02-48.33c-54.352 8.2869 57.494 34.414 11.125 3.541-3.5091-1.9927-7.2371-2.732-11.125-3.541zm298.45 7.0742c-19.419 31.023 61.78 51.121 8.0955 45.407 36.861 8.6238-19.999 7.9379 11.674 22.484 13.571 7.4922 41.548 0.0758 11.169 7.5395 0 0-30.473-7.4581-42.831-7.8285-12.358-0.37045-74.11-0.29012-72.67 10.562 15.379 0.44693 65.208 2.5867 24.441 4.8729 5.493 21.921-108.4 9.8093-51.789 8.9551 14.891 0.28048 69.586-7.7948 24.131-8.6016-19.45-9.4906-55.853 0.79857-51.623-7.6599s6.0577-6.7683 15.407-22.23-4.8343-5.6369-20.125 1.2782-82.687-11.54-63.042 29.545c-19.563 30.999-86.902-4.1141-96.339 23.898 8.0342 30.882-61.29 22.832-90.584 19.718s-67.977-19.21-20.865-35.61c24.941-7.1452 9.5554-33.814 4.3807-33.524 13.39-20.365-50.625-4.8838-58.459-26.603-29.938-9.3673-32.651 5.8986-2.6495 9.2168-18.672 3.2001-56.667 10.406-15.902 15.204 36.491 8.5497 16.505 9.0616-4.5346 19.132 10.462 9.4643 71.596 7.9741 27.853 16.305 30.359 9.5361 25.667 9.3519 3.0843 21.696 22.623 11.438 22.956 14.349 0.23023 17.691 18.82 4.6105 89.263 16.448 33.096 16.924-62.858 9.7407 42.314 19.239 60.478 17.914 36.85 0.65005 32.557 24.825-1.8417 15.557-21.233-6.8664-66.388 8.9591-19.369 11.945 34.348 4.6121 69.508 1.9351 103.42 9.9228-18.016 4.0052-82.194 8.8048-30.082 13.37 19.546 2.4871 77.077 1.4332 68.925 8.3953-22.898-1.0732-79.561 0.63204-25.672 6.2505 23.059 2.0507 70.853-2.5746 77.114 9.5174-15.792 1.9618-83.976 1.2002-35.218 7.4438 44.46 11.316 119.04-8.5298 144.61 12.33 26.08 2.7851 58.22 3.884 81.272-0.51939-13.908-1.6885-68.429-6.9251-26.13-10.266 40.977-4.7885 129.09 0.4748 139.92-13.226-16.48-2.5652-72.66-7.2372-25.765-9.6451 45.834-4.0764 123.52 4.5304 148.7-16.859-22.798-3.4032-65.339-18.817-16.042-23.377 22.182-1.9845 94.666-8.474 37.379-16.191 12.215-13.28 85.445-4.9117 88.847-20.114-25.35 7.7746-31.305-22.254-4.1977-23.968-53.223-18.962 41.991-6.7999 18.624-21.28-29.704 7.3052-56.579-22.271-12.071-20.334 46.072-14.053-9.789-18.046-26.823-19.665 11.025-1.1479 61.122-6.6867 26.287-14.336 21.687 0.90296 69.709-14.798 20.676-15.668-21.742-1.2528-33.804-4.4281-6.1057-6.3665-20.912-14.579-96.248 5.8501-66.815 37.511 23.816 24.757 24.434 46.321 18.823 60.117-5.6116 13.797-79.195 21.02-120.35 25.193l-124.23 19.191c-183.47 23.494 4.0653-30.885-5.904-55.136 20.921-11.045 16.405-4.4738 9.8452 9.0791 2.5379 28.529 54.897 3.9506 75.207 21.495 46.643-15.074-51.543-64.893 1.7437-34.188 16.046 18.967 52.703-1.9027 38.094-7.8727 27.524 19.106 8.4605-34.959 26.859-5.3564 27.652 3.0625 63.463-40.039 19.677-52.777-32.87-17.506 39.52 4.3199 30.987 30 5.2918 36.19 54.286 18.891 24.749-9.9225-36.488-41.923-100.89-44.542-150.64-29.347-46.861 19.644-89.409 48.631-130.83 77.657-13.223 13.997-36.22 43.817-18.287 7.9006 31.656-24.067 66.329-50.769 101.31-67.061-41.82-5.1765-56.839-38.136-89.321-55.687zm-269.84 3.168c-16.11 43.169 103.74 38.714 41.137 16.903-14.482-3.1828-29.882-6.494-41.137-16.903zm-47.176 12.434c-30.612 1.6751-82.354 18.224-75.734 46.16-25.789 5.513 32.831 15.978 19.871-15.604 14.385-14.215 40.766-7.8933 10.946-2.6028-21.364 36.991 94.679 2.2132 62.023 20.226s41.626 21.497 56.132 16.066c14.652-6.7304 46.884-3.681 14.74-23.329-25.346-19.36-57.367-42.591-87.978-40.916zm131.18 12.584c-29.777 3.3475-29.378 25.481-1.5759 8.1186 2.9545-0.59539 5.7582-6.8901 1.5759-8.1186zm165.6 23.714c-46.297 1.857 5.5112 21.89 19.924 9.9767s-19.924-9.9767-19.924-9.9767zm-339.31 21.292c-13.564 6.4289 30.891 23.181 40.783 7.4533-15.461 3.1196-26.809-1.18-40.783-7.4533zm-18.551 12.564c-17.552 3.5847-48.9 18.799-26.574 25.076s23.387 8.4925 41.081 9.616c17.694 1.1236 88.762-3.5585 30.091-23.906-14.554-4.4891-29.214-10.225-44.598-10.787zm649.22 20.467c-26.982-0.0305-18.303 17.179-6.2027 17.225 12.234 0.0457 33.185-17.194 6.2027-17.225z" fill="#558ba7"/></svg>
