<?xml version="1.0" encoding="UTF-8" standalone="no"?>
<svg
   width="1024"
   height="320"
   viewBox="0 0 1024 320"
   version="1.1"
   xml:space="preserve"
   style="clip-rule:evenodd;fill-rule:evenodd;stroke-linejoin:round;stroke-miterlimit:2"
   id="svg3"
   sodipodi:docname="fjarholm-logo.svg"
   inkscape:version="1.3.2 (091e20e, 2023-11-25, custom)"
   inkscape:export-filename="F-New Logo.png"
   inkscape:export-xdpi="96"
   inkscape:export-ydpi="96"
   xmlns:inkscape="http://www.inkscape.org/namespaces/inkscape"
   xmlns:sodipodi="http://sodipodi.sourceforge.net/DTD/sodipodi-0.dtd"
   xmlns="http://www.w3.org/2000/svg"
   xmlns:svg="http://www.w3.org/2000/svg"><defs
   id="defs3" /><sodipodi:namedview
   id="namedview3"
   pagecolor="#ffffff"
   bordercolor="#000000"
   borderopacity="0.25"
   inkscape:showpageshadow="2"
   inkscape:pageopacity="0.0"
   inkscape:pagecheckerboard="0"
   inkscape:deskcolor="#d1d1d1"
   inkscape:zoom="0.6408706"
   inkscape:cx="512.58398"
   inkscape:cy="19.504717"
   inkscape:window-width="1920"
   inkscape:window-height="991"
   inkscape:window-x="-9"
   inkscape:window-y="-9"
   inkscape:window-maximized="1"
   inkscape:current-layer="layer1"
   showguides="true" />
    
<g
   inkscape:groupmode="layer"
   id="layer1"
   inkscape:label="Fjarholm"><path
     id="path1"
     style="clip-rule:evenodd;fill:#fafafa;fill-opacity:1;fill-rule:evenodd;stroke-width:0.746793;stroke-linejoin:round;stroke-miterlimit:2"
     inkscape:label="Pruun Küljel"
     d="m 557.5627,88.030402 c -15.19756,0.299061 -29.60701,5.386719 -43.50859,12.817758 a 3.9342567,3.9342567 0 0 1 1.13798,2.764 v 29.48061 c 4.07923,0.56963 6.81406,1.4685 8.06666,1.89522 5.74902,1.95852 10.53496,5.714 14.17023,10.73652 h 22.94588 v -42.11235 a 3.9342567,3.9342567 0 0 1 3.93482,-3.93483 h 27.02734 a 3.9342567,3.9342567 0 0 1 3.93483,3.93483 v 95.30262 c 7.14414,-10.51095 11.96386,-18.38671 16.38712,-31.68218 16.59218,-49.86383 -16.34766,-70.824601 -17.45071,-71.809645 -0.50405,0.304223 -1.00812,0.60793 -1.51221,0.912588 l -0.74842,-0.356912 -0.74627,-0.413843 -0.74627,-0.472723 C 579.054,89.90966 568.11948,87.822036 557.5627,88.029939 Z m -77.26764,34.914508 c -7.64875,5.61719 -15.20523,11.34609 -22.71833,16.75258 0.24312,2.04498 0.38053,4.13978 0.38053,6.29184 0,0.65482 -0.0366,1.29466 -0.0593,1.93893 6.95596,-3.14484 14.08767,-6.37302 15.31261,-6.92641 2.46119,-1.11218 4.79996,-2.03821 7.08402,-2.88656 z m 64.63372,53.50543 c -1.261,16.66267 -9.46219,35.87505 -27.02523,53.29752 -17.49652,17.35693 -47.81414,27.86054 -64.14346,30.50043 -8.85537,1.43084 -18.90303,1.17974 -20.10089,1.23647 -14.59077,0.69228 53.73984,11.78718 100.91598,-11.92485 0.47644,-0.23982 5.34381,-2.68682 5.98983,-2.93252 8.56916,-3.25951 21.19826,-12.57911 32.07608,-22.29592 h -8.33141 a 3.9342567,3.9342567 0 0 1 -3.93482,-3.93482 v -43.94631 z" /><path
     id="path2"
     style="clip-rule:evenodd;fill:#fafafa;fill-opacity:1;fill-rule:evenodd;stroke-width:0.746793;stroke-linejoin:round;stroke-miterlimit:2"
     inkscape:label="Pruun All"
     d="m 305.67422,133.98787 c 0,0 -0.0139,9.65742 2.98944,19.56912 3.00418,9.91173 10.69527,26.15348 17.92118,38.36569 6.30494,10.65604 14.42328,19.80841 22.55639,27.31405 v -42.40558 c -5.98545,-2.25737 -12.55993,-5.37576 -18.27576,-9.5176 -12.1592,-8.8108 -20.3359,-22.09642 -20.91943,-24.6507 -1.00823,-1.93314 -4.27182,-8.67498 -4.27182,-8.67498 z m 174.62084,28.55707 c -7.50496,0.0803 -16.62215,1.79956 -27.57882,5.03782 -3.79335,6.98077 -9.51851,12.66285 -16.83581,16.66505 l 23.57401,33.99977 a 3.773095,3.773095 0 0 1 -3.10103,5.92195 H 427.3236 a 3.773095,3.773095 0 0 1 -3.10098,-1.62604 l -21.39871,-30.90527 h -19.10953 v 28.75843 a 3.773095,3.773095 0 0 1 -3.77289,3.77288 h -25.21314 c 9.89415,8.27169 19.18317,13.94058 24.51942,16.63221 42.10767,21.23945 81.8891,6.52834 94.06174,-0.27995 9.06276,-5.06918 15.88492,-10.3496 21.17981,-16.19015 h -10.25944 a 3.9342567,3.9342567 0 0 1 -3.93482,-3.93483 z" /><path
     id="path3"
     style="clip-rule:evenodd;fill:#fafafa;fill-opacity:1;fill-rule:evenodd;stroke:none;stroke-width:3.36146;stroke-linecap:square;stroke-linejoin:miter;stroke-miterlimit:2;stroke-dasharray:none;stroke-opacity:1;paint-order:markers stroke fill"
     inkscape:label="Roheline Üleval"
     d="m 385.43668,69.465796 c -12.30241,-0.260803 -20.73109,1.048314 -21.97862,1.422448 -0.43017,0.128308 -14.16972,2.588611 -23.03781,6.91554 -15.62584,7.622469 -19.00284,12.811456 -21.84513,16.10481 -13.52954,15.675106 -14.19617,48.204836 28.53961,67.728136 0.67269,0.30748 1.35152,0.54 2.0265,0.82506 v -58.84963 a 3.773095,3.773095 0 0 1 3.77289,-3.772892 h 29.30115 c 2.33112,-6.257733 8.62326,-9.308847 8.91358,-9.484746 12.32871,-7.462669 33.60371,-4.987385 36.52959,-4.646092 0.41215,0.04805 12.67395,1.368558 13.43493,1.556023 9.43118,0.79455 19.40627,3.359138 15.71742,0.649964 -3.68886,-2.709174 -9.24534,-4.480094 -26.15415,-10.447674 -16.74261,-5.909314 -32.91752,-7.739951 -45.21996,-8.000947 z m 165.08578,12.126173 c -26.38763,-0.244502 -50.49389,10.999525 -51.94947,11.524404 -7.63563,3.229013 -9.01833,3.915511 -15.08934,6.760082 a 3.9342567,3.9342567 0 0 1 0.74623,-0.199251 h 27.02739 a 3.9342567,3.9342567 0 0 1 2.7903,1.164256 c 23.56037,-12.591524 48.59129,-18.392962 76.40752,-5.749049 l 0.74627,0.472723 0.74627,0.413842 0.74842,0.356913 c 0.50409,-0.30467 1.00816,-0.608625 1.51221,-0.912589 -10.28774,-6.766615 -11.79048,-8.102657 -25.30283,-11.552822 -6.08207,-1.552707 -12.29358,-2.221803 -18.38297,-2.278163 z m -68.71518,19.067981 c -1.54628,0.72167 -1.53933,0.72774 -3.92827,1.83171 -3.54466,1.82621 -15.68103,8.27981 -30.88562,13.31236 5.86042,6.39556 9.47333,14.55448 10.58334,23.89571 7.51488,-5.40715 15.07331,-11.13781 22.71833,-16.75263 v -19.33494 a 3.9342567,3.9342567 0 0 1 1.51222,-2.95221 z m -98.0929,28.74747 v 33.16159 h 18.24947 c 7.67413,0 12.94001,-1.78869 16.1902,-4.53225 3.25014,-2.74361 4.89555,-6.53507 4.89555,-12.04743 0,-5.60655 -1.64834,-9.38462 -4.88901,-12.10434 -3.24071,-2.71972 -8.51005,-4.47757 -16.19674,-4.47757 z" /><path
     style="font-weight:bold;font-size:148.896px;line-height:0;font-family:Montserrat;-inkscape-font-specification:'Montserrat Bold';text-align:center;letter-spacing:7.75498px;text-anchor:middle;fill:#fafafa;stroke-width:6.95152;stroke-linecap:square;paint-order:markers stroke fill;fill-opacity:1"
     d="m 886.67902,220.39679 h 25.35906 v -68.73642 l 34.20136,56.39054 h 12.17907 l 34.36818,-57.55839 0.1671,69.90427 h 25.35901 l -0.3338,-116.7852 h -22.18922 l -43.04349,72.57364 -43.71106,-72.57364 h -22.35601 z"
     id="path26"
     inkscape:label="M" /><path
     style="font-weight:bold;font-size:148.896px;line-height:0;font-family:Montserrat;-inkscape-font-specification:'Montserrat Bold';text-align:center;letter-spacing:7.75498px;text-anchor:middle;fill:#fafafa;stroke-width:6.95152;stroke-linecap:square;paint-order:markers stroke fill;fill-opacity:1"
     d="m 777.2207,220.39679 h 85.58689 V 198.37445 H 804.24817 V 103.61159 H 777.2207 Z"
     id="path25"
     inkscape:label="L" /><path
     id="path23"
     style="font-weight:bold;font-size:148.896px;line-height:0;font-family:Montserrat;-inkscape-font-specification:'Montserrat Bold';text-align:center;letter-spacing:7.75498px;text-anchor:middle;fill:#fafafa;stroke-width:6.95152;stroke-linecap:square;paint-order:markers stroke fill;fill-opacity:1"
     inkscape:label="O"
     d="m 684.27836,101.60889 c -36.87072,0 -63.89842,25.6928 -63.89842,60.39465 0,34.70184 27.0277,60.39465 63.89842,60.39465 36.70383,0 63.89834,-25.52596 63.89834,-60.39465 0,-34.86869 -27.19451,-60.39465 -63.89834,-60.39465 z m 0,23.02468 c 20.85441,0 36.53836,15.18079 36.53836,37.36997 0,22.18917 -15.68395,37.37215 -36.53836,37.37215 -20.85453,0 -36.53621,-15.18298 -36.53621,-37.37215 0,-22.18918 15.68168,-37.36997 36.53621,-37.36997 z" /><path
     style="font-weight:bold;font-size:148.896px;line-height:0;font-family:Montserrat;-inkscape-font-specification:'Montserrat Bold';text-align:center;letter-spacing:7.75498px;text-anchor:middle;display:inline;fill:#fafafa;stroke-width:6.95152;stroke-linecap:square;paint-order:markers stroke fill;fill-opacity:1"
     d="m 564.31025,220.39679 h 27.02738 v -116.7852 h -27.02738 v 46.04672 H 511.25637 V 103.61159 H 484.2289 v 116.7852 h 27.02747 v -47.88193 h 53.05388 z"
     id="path22"
     inkscape:label="H" /><path
     id="path20"
     style="font-weight:bold;font-size:148.896px;line-height:0;font-family:Montserrat;-inkscape-font-specification:'Montserrat Bold';text-align:center;letter-spacing:7.75498px;text-anchor:middle;display:inline;fill:#fafafa;fill-opacity:1;stroke:none;stroke-width:3.36146;stroke-linecap:square;stroke-dasharray:none;stroke-opacity:1;paint-order:markers stroke fill"
     inkscape:label="R"
     d="m 352.91412,103.61132 v 116.78445 h 27.02737 v -32.53132 h 23.5258 1.33279 l 22.52352,32.53132 h 29.02981 L 430.3262,182.85948 c 15.18201,-6.5066 23.85846,-19.35329 23.85846,-36.87103 0,-26.19319 -18.85182,-42.37713 -51.38481,-42.37713 z m 27.02737,22.02237 h 22.02236 c 16.51678,0 24.85859,7.5084 24.85859,20.35476 0,12.67952 -8.34181,20.35261 -24.85859,20.35261 h -22.02236 z" /><path
     id="path18"
     style="font-weight:bold;font-size:148.896px;line-height:0;font-family:Montserrat;-inkscape-font-specification:'Montserrat Bold';text-align:center;letter-spacing:7.75498px;text-anchor:middle;fill:#fafafa;stroke-width:6.95152;stroke-linecap:square;paint-order:markers stroke fill;fill-opacity:1"
     inkscape:label="A"
     d="M 253.13392,103.61132 201.0794,220.39577 h 27.69486 l 10.3448,-25.02493 h 54.22104 l 10.34481,25.02493 h 28.36231 l -52.2208,-116.78445 z m 13.17882,26.69469 18.51866,44.54375 h -37.20364 z" /><path
     style="font-weight:bold;font-size:148.896px;line-height:0;font-family:Montserrat;-inkscape-font-specification:'Montserrat Bold';text-align:center;letter-spacing:7.75498px;text-anchor:middle;fill:#fafafa;stroke-width:6.95152;stroke-linecap:square;paint-order:markers stroke fill;fill-opacity:1"
     d="m 141.50581,222.3988 c 27.52797,0 42.04265,-14.18106 42.04265,-43.04366 v -75.74355 h -67.9022 v 21.6887 h 41.04164 v 55.55638 c 0,12.84635 -5.67244,19.35295 -16.51678,19.35295 -8.34177,0 -15.3489,-4.33774 -21.68865,-12.84635 l -15.01525,18.01826 c 8.50865,11.01119 22.35601,17.01727 38.03859,17.01727 z"
     id="path17"
     inkscape:label="J" /><path
     style="font-weight:bold;font-size:148.896px;line-height:0;font-family:Montserrat;-inkscape-font-specification:'Montserrat Bold';text-align:center;letter-spacing:7.75498px;text-anchor:middle;fill:#fafafa;stroke-width:6.95152;stroke-linecap:square;paint-order:markers stroke fill;fill-opacity:1"
     d="M 7.1888746,220.39679 H 34.216321 V 177.85361 H 88.271168 V 156.16492 H 34.216321 v -30.86463 h 61.228817 v -21.6887 H 7.1888746 Z"
     id="text17"
     inkscape:label="F" /></g></svg>
